<?xml version="1.0" encoding="us-ascii" standalone="no"?><svg xmlns="http://www.w3.org/2000/svg" xmlns:xlink="http://www.w3.org/1999/xlink" contentStyleType="text/css" height="1301px" preserveAspectRatio="none" style="width:890px;height:1301px;background:#FFFFFF;" version="1.1" viewBox="0 0 890 1301" width="890px" zoomAndPan="magnify"><defs/><g><!--cluster ext_core--><g id="cluster_ext_core"><path d="M313.1893,1058 L381.1893,1058 A3.75,3.75 0 0 1 383.6893,1060.5 L390.6893,1080.2969 L598.1893,1080.2969 A2.5,2.5 0 0 1 600.6893,1082.7969 L600.6893,1291.5 A2.5,2.5 0 0 1 598.1893,1294 L313.1893,1294 A2.5,2.5 0 0 1 310.6893,1291.5 L310.6893,1060.5 A2.5,2.5 0 0 1 313.1893,1058 " fill="none" style="stroke:#000000;stroke-width:1.5;"/><line style="stroke:#000000;stroke-width:1.5;" x1="310.6893" x2="390.6893" y1="1080.2969" y2="1080.2969"/><text fill="#000000" font-family="sans-serif" font-size="14" font-weight="bold" lengthAdjust="spacing" textLength="67" x="314.6893" y="1072.9951">External</text></g><!--cluster ext_ssl--><g id="cluster_ext_ssl"><path d="M612.1893,905 L680.1893,905 A3.75,3.75 0 0 1 682.6893,907.5 L689.6893,927.2969 L780.1893,927.2969 A2.5,2.5 0 0 1 782.6893,929.7969 L782.6893,1015.5 A2.5,2.5 0 0 1 780.1893,1018 L612.1893,1018 A2.5,2.5 0 0 1 609.6893,1015.5 L609.6893,907.5 A2.5,2.5 0 0 1 612.1893,905 " fill="none" style="stroke:#000000;stroke-width:1.5;"/><line style="stroke:#000000;stroke-width:1.5;" x1="609.6893" x2="689.6893" y1="927.2969" y2="927.2969"/><text fill="#000000" font-family="sans-serif" font-size="14" font-weight="bold" lengthAdjust="spacing" textLength="67" x="613.6893" y="919.9951">External</text></g><!--cluster ext_egl--><g id="cluster_ext_egl"><path d="M612.1893,752 L680.1893,752 A3.75,3.75 0 0 1 682.6893,754.5 L689.6893,774.2969 L742.1893,774.2969 A2.5,2.5 0 0 1 744.6893,776.7969 L744.6893,862.5 A2.5,2.5 0 0 1 742.1893,865 L612.1893,865 A2.5,2.5 0 0 1 609.6893,862.5 L609.6893,754.5 A2.5,2.5 0 0 1 612.1893,752 " fill="none" style="stroke:#000000;stroke-width:1.5;"/><line style="stroke:#000000;stroke-width:1.5;" x1="609.6893" x2="689.6893" y1="774.2969" y2="774.2969"/><text fill="#000000" font-family="sans-serif" font-size="14" font-weight="bold" lengthAdjust="spacing" textLength="67" x="613.6893" y="766.9951">External</text></g><!--cluster ext_opengl--><g id="cluster_ext_opengl"><path d="M612.1893,340 L680.1893,340 A3.75,3.75 0 0 1 682.6893,342.5 L689.6893,362.2969 L881.1893,362.2969 A2.5,2.5 0 0 1 883.6893,364.7969 L883.6893,556.5 A2.5,2.5 0 0 1 881.1893,559 L612.1893,559 A2.5,2.5 0 0 1 609.6893,556.5 L609.6893,342.5 A2.5,2.5 0 0 1 612.1893,340 " fill="none" style="stroke:#000000;stroke-width:1.5;"/><line style="stroke:#000000;stroke-width:1.5;" x1="609.6893" x2="689.6893" y1="362.2969" y2="362.2969"/><text fill="#000000" font-family="sans-serif" font-size="14" font-weight="bold" lengthAdjust="spacing" textLength="67" x="613.6893" y="354.9951">External</text></g><!--cluster ext_openal--><g id="cluster_ext_openal"><path d="M612.1893,599 L680.1893,599 A3.75,3.75 0 0 1 682.6893,601.5 L689.6893,621.2969 L772.1893,621.2969 A2.5,2.5 0 0 1 774.6893,623.7969 L774.6893,709.5 A2.5,2.5 0 0 1 772.1893,712 L612.1893,712 A2.5,2.5 0 0 1 609.6893,709.5 L609.6893,601.5 A2.5,2.5 0 0 1 612.1893,599 " fill="none" style="stroke:#000000;stroke-width:1.5;"/><line style="stroke:#000000;stroke-width:1.5;" x1="609.6893" x2="689.6893" y1="621.2969" y2="621.2969"/><text fill="#000000" font-family="sans-serif" font-size="14" font-weight="bold" lengthAdjust="spacing" textLength="67" x="613.6893" y="613.9951">External</text></g><!--cluster EAGine--><g id="cluster_EAGine"><path d="M32.1893,6 L89.1893,6 A3.75,3.75 0 0 1 91.6893,8.5 L98.6893,28.2969 L575.1893,28.2969 A2.5,2.5 0 0 1 577.6893,30.7969 L577.6893,1007.5 A2.5,2.5 0 0 1 575.1893,1010 L32.1893,1010 A2.5,2.5 0 0 1 29.6893,1007.5 L29.6893,8.5 A2.5,2.5 0 0 1 32.1893,6 " fill="none" style="stroke:#000000;stroke-width:1.5;"/><line style="stroke:#000000;stroke-width:1.5;" x1="29.6893" x2="98.6893" y1="28.2969" y2="28.2969"/><text fill="#000000" font-family="sans-serif" font-size="14" font-weight="bold" lengthAdjust="spacing" textLength="56" x="33.6893" y="20.9951">EAGine</text></g><!--entity boost--><g id="elem_boost"><rect fill="#ADD8E6" height="46.2969" rx="2.5" ry="2.5" style="stroke:#181818;stroke-width:0.5;" width="82" x="353.6893" y="1101"/><rect fill="#ADD8E6" height="10" style="stroke:#181818;stroke-width:0.5;" width="15" x="415.6893" y="1106"/><rect fill="#ADD8E6" height="2" style="stroke:#181818;stroke-width:0.5;" width="4" x="413.6893" y="1108"/><rect fill="#ADD8E6" height="2" style="stroke:#181818;stroke-width:0.5;" width="4" x="413.6893" y="1112"/><text fill="#000000" font-family="sans-serif" font-size="14" lengthAdjust="spacing" textLength="42" x="368.6893" y="1133.9951">Boost</text></g><!--entity systemd--><g id="elem_systemd"><rect fill="#ADD8E6" height="46.2969" rx="2.5" ry="2.5" style="stroke:#181818;stroke-width:0.5;" width="105" x="471.1893" y="1101"/><rect fill="#ADD8E6" height="10" style="stroke:#181818;stroke-width:0.5;" width="15" x="556.1893" y="1106"/><rect fill="#ADD8E6" height="2" style="stroke:#181818;stroke-width:0.5;" width="4" x="554.1893" y="1108"/><rect fill="#ADD8E6" height="2" style="stroke:#181818;stroke-width:0.5;" width="4" x="554.1893" y="1112"/><text fill="#000000" font-family="sans-serif" font-size="14" lengthAdjust="spacing" textLength="65" x="486.1893" y="1133.9951">SystemD</text></g><!--entity stacktrace--><g id="elem_stacktrace"><rect fill="#ADD8E6" height="62.5938" rx="2.5" ry="2.5" style="stroke:#181818;stroke-width:0.5;" width="81" x="354.1893" y="1207"/><rect fill="#ADD8E6" height="10" style="stroke:#181818;stroke-width:0.5;" width="15" x="415.1893" y="1212"/><rect fill="#ADD8E6" height="2" style="stroke:#181818;stroke-width:0.5;" width="4" x="413.1893" y="1214"/><rect fill="#ADD8E6" height="2" style="stroke:#181818;stroke-width:0.5;" width="4" x="413.1893" y="1218"/><text fill="#000000" font-family="sans-serif" font-size="14" lengthAdjust="spacing" textLength="41" x="369.1893" y="1239.9951">Stack</text><text fill="#000000" font-family="sans-serif" font-size="14" lengthAdjust="spacing" textLength="40" x="369.1893" y="1256.292">Trace</text></g><!--entity zlib--><g id="elem_zlib"><rect fill="#ADD8E6" height="46.2969" rx="2.5" ry="2.5" style="stroke:#181818;stroke-width:0.5;" width="72" x="470.6893" y="1215.5"/><rect fill="#ADD8E6" height="10" style="stroke:#181818;stroke-width:0.5;" width="15" x="522.6893" y="1220.5"/><rect fill="#ADD8E6" height="2" style="stroke:#181818;stroke-width:0.5;" width="4" x="520.6893" y="1222.5"/><rect fill="#ADD8E6" height="2" style="stroke:#181818;stroke-width:0.5;" width="4" x="520.6893" y="1226.5"/><text fill="#000000" font-family="sans-serif" font-size="14" lengthAdjust="spacing" textLength="32" x="485.6893" y="1248.4951">ZLib</text></g><!--entity openssl--><g id="elem_openssl"><rect fill="#ADD8E6" height="46.2969" rx="2.5" ry="2.5" style="stroke:#181818;stroke-width:0.5;" width="105" x="653.1893" y="948"/><rect fill="#ADD8E6" height="10" style="stroke:#181818;stroke-width:0.5;" width="15" x="738.1893" y="953"/><rect fill="#ADD8E6" height="2" style="stroke:#181818;stroke-width:0.5;" width="4" x="736.1893" y="955"/><rect fill="#ADD8E6" height="2" style="stroke:#181818;stroke-width:0.5;" width="4" x="736.1893" y="959"/><text fill="#000000" font-family="sans-serif" font-size="14" lengthAdjust="spacing" textLength="65" x="668.1893" y="980.9951">OpenSSL</text></g><!--entity egl--><g id="elem_egl"><rect fill="#ADD8E6" height="46.2969" rx="2.5" ry="2.5" style="stroke:#181818;stroke-width:0.5;" width="68" x="652.6893" y="795"/><rect fill="#ADD8E6" height="10" style="stroke:#181818;stroke-width:0.5;" width="15" x="700.6893" y="800"/><rect fill="#ADD8E6" height="2" style="stroke:#181818;stroke-width:0.5;" width="4" x="698.6893" y="802"/><rect fill="#ADD8E6" height="2" style="stroke:#181818;stroke-width:0.5;" width="4" x="698.6893" y="806"/><text fill="#000000" font-family="sans-serif" font-size="14" lengthAdjust="spacing" textLength="28" x="667.6893" y="827.9951">EGL</text></g><!--entity glew--><g id="elem_glew"><rect fill="#ADD8E6" height="46.2969" rx="2.5" ry="2.5" style="stroke:#181818;stroke-width:0.5;" width="82" x="777.6893" y="383"/><rect fill="#ADD8E6" height="10" style="stroke:#181818;stroke-width:0.5;" width="15" x="839.6893" y="388"/><rect fill="#ADD8E6" height="2" style="stroke:#181818;stroke-width:0.5;" width="4" x="837.6893" y="390"/><rect fill="#ADD8E6" height="2" style="stroke:#181818;stroke-width:0.5;" width="4" x="837.6893" y="394"/><text fill="#000000" font-family="sans-serif" font-size="14" lengthAdjust="spacing" textLength="42" x="792.6893" y="415.9951">GLEW</text></g><!--entity glfw--><g id="elem_glfw"><rect fill="#ADD8E6" height="46.2969" rx="2.5" ry="2.5" style="stroke:#181818;stroke-width:0.5;" width="90" x="652.6893" y="383"/><rect fill="#ADD8E6" height="10" style="stroke:#181818;stroke-width:0.5;" width="15" x="722.6893" y="388"/><rect fill="#ADD8E6" height="2" style="stroke:#181818;stroke-width:0.5;" width="4" x="720.6893" y="390"/><rect fill="#ADD8E6" height="2" style="stroke:#181818;stroke-width:0.5;" width="4" x="720.6893" y="394"/><text fill="#000000" font-family="sans-serif" font-size="14" lengthAdjust="spacing" textLength="50" x="667.6893" y="415.9951">GLFW3</text></g><!--entity opengl--><g id="elem_opengl"><rect fill="#ADD8E6" height="46.2969" rx="2.5" ry="2.5" style="stroke:#181818;stroke-width:0.5;" width="98" x="706.6893" y="489"/><rect fill="#ADD8E6" height="10" style="stroke:#181818;stroke-width:0.5;" width="15" x="784.6893" y="494"/><rect fill="#ADD8E6" height="2" style="stroke:#181818;stroke-width:0.5;" width="4" x="782.6893" y="496"/><rect fill="#ADD8E6" height="2" style="stroke:#181818;stroke-width:0.5;" width="4" x="782.6893" y="500"/><text fill="#000000" font-family="sans-serif" font-size="14" lengthAdjust="spacing" textLength="58" x="721.6893" y="521.9951">OpenGL</text></g><!--entity openal--><g id="elem_openal"><rect fill="#ADD8E6" height="46.2969" rx="2.5" ry="2.5" style="stroke:#181818;stroke-width:0.5;" width="97" x="653.1893" y="642"/><rect fill="#ADD8E6" height="10" style="stroke:#181818;stroke-width:0.5;" width="15" x="730.1893" y="647"/><rect fill="#ADD8E6" height="2" style="stroke:#181818;stroke-width:0.5;" width="4" x="728.1893" y="649"/><rect fill="#ADD8E6" height="2" style="stroke:#181818;stroke-width:0.5;" width="4" x="728.1893" y="653"/><text fill="#000000" font-family="sans-serif" font-size="14" lengthAdjust="spacing" textLength="57" x="668.1893" y="674.9951">OpenAL</text></g><!--entity core--><g id="elem_core"><rect fill="#F1F1F1" height="46.2969" rx="2.5" ry="2.5" style="stroke:#181818;stroke-width:0.5;" width="74" x="281.6893" y="948"/><rect fill="#F1F1F1" height="10" style="stroke:#181818;stroke-width:0.5;" width="15" x="335.6893" y="953"/><rect fill="#F1F1F1" height="2" style="stroke:#181818;stroke-width:0.5;" width="4" x="333.6893" y="955"/><rect fill="#F1F1F1" height="2" style="stroke:#181818;stroke-width:0.5;" width="4" x="333.6893" y="959"/><text fill="#000000" font-family="sans-serif" font-size="14" lengthAdjust="spacing" textLength="34" x="296.6893" y="980.9951">Core</text></g><!--entity sslplus--><g id="elem_sslplus"><rect fill="#F1F1F1" height="46.2969" rx="2.5" ry="2.5" style="stroke:#181818;stroke-width:0.5;" width="95" x="429.1893" y="795"/><rect fill="#F1F1F1" height="10" style="stroke:#181818;stroke-width:0.5;" width="15" x="504.1893" y="800"/><rect fill="#F1F1F1" height="2" style="stroke:#181818;stroke-width:0.5;" width="4" x="502.1893" y="802"/><rect fill="#F1F1F1" height="2" style="stroke:#181818;stroke-width:0.5;" width="4" x="502.1893" y="806"/><text fill="#000000" font-family="sans-serif" font-size="14" lengthAdjust="spacing" textLength="55" x="444.1893" y="827.9951">SSLplus</text></g><!--entity shapes--><g id="elem_shapes"><rect fill="#F1F1F1" height="46.2969" rx="2.5" ry="2.5" style="stroke:#181818;stroke-width:0.5;" width="92" x="190.6893" y="383"/><rect fill="#F1F1F1" height="10" style="stroke:#181818;stroke-width:0.5;" width="15" x="262.6893" y="388"/><rect fill="#F1F1F1" height="2" style="stroke:#181818;stroke-width:0.5;" width="4" x="260.6893" y="390"/><rect fill="#F1F1F1" height="2" style="stroke:#181818;stroke-width:0.5;" width="4" x="260.6893" y="394"/><text fill="#000000" font-family="sans-serif" font-size="14" lengthAdjust="spacing" textLength="52" x="205.6893" y="415.9951">Shapes</text></g><!--entity msgbus--><g id="elem_msgbus"><rect fill="#F1F1F1" height="62.5938" rx="2.5" ry="2.5" style="stroke:#181818;stroke-width:0.5;" width="101" x="104.1893" y="253"/><rect fill="#F1F1F1" height="10" style="stroke:#181818;stroke-width:0.5;" width="15" x="185.1893" y="258"/><rect fill="#F1F1F1" height="2" style="stroke:#181818;stroke-width:0.5;" width="4" x="183.1893" y="260"/><rect fill="#F1F1F1" height="2" style="stroke:#181818;stroke-width:0.5;" width="4" x="183.1893" y="264"/><text fill="#000000" font-family="sans-serif" font-size="14" lengthAdjust="spacing" textLength="61" x="119.1893" y="285.9951">Message</text><text fill="#000000" font-family="sans-serif" font-size="14" lengthAdjust="spacing" textLength="25" x="119.1893" y="302.292">Bus</text></g><!--entity eglplus--><g id="elem_eglplus"><rect fill="#F1F1F1" height="46.2969" rx="2.5" ry="2.5" style="stroke:#181818;stroke-width:0.5;" width="97" x="464.1893" y="642"/><rect fill="#F1F1F1" height="10" style="stroke:#181818;stroke-width:0.5;" width="15" x="541.1893" y="647"/><rect fill="#F1F1F1" height="2" style="stroke:#181818;stroke-width:0.5;" width="4" x="539.1893" y="649"/><rect fill="#F1F1F1" height="2" style="stroke:#181818;stroke-width:0.5;" width="4" x="539.1893" y="653"/><text fill="#000000" font-family="sans-serif" font-size="14" lengthAdjust="spacing" textLength="57" x="479.1893" y="674.9951">EGLplus</text></g><!--entity oglplus--><g id="elem_oglplus"><rect fill="#F1F1F1" height="46.2969" rx="2.5" ry="2.5" style="stroke:#181818;stroke-width:0.5;" width="99" x="355.1893" y="261.5"/><rect fill="#F1F1F1" height="10" style="stroke:#181818;stroke-width:0.5;" width="15" x="434.1893" y="266.5"/><rect fill="#F1F1F1" height="2" style="stroke:#181818;stroke-width:0.5;" width="4" x="432.1893" y="268.5"/><rect fill="#F1F1F1" height="2" style="stroke:#181818;stroke-width:0.5;" width="4" x="432.1893" y="272.5"/><text fill="#000000" font-family="sans-serif" font-size="14" lengthAdjust="spacing" textLength="59" x="370.1893" y="294.4951">OGLplus</text></g><!--entity oalplus--><g id="elem_oalplus"><rect fill="#F1F1F1" height="46.2969" rx="2.5" ry="2.5" style="stroke:#181818;stroke-width:0.5;" width="98" x="392.6893" y="489"/><rect fill="#F1F1F1" height="10" style="stroke:#181818;stroke-width:0.5;" width="15" x="470.6893" y="494"/><rect fill="#F1F1F1" height="2" style="stroke:#181818;stroke-width:0.5;" width="4" x="468.6893" y="496"/><rect fill="#F1F1F1" height="2" style="stroke:#181818;stroke-width:0.5;" width="4" x="468.6893" y="500"/><text fill="#000000" font-family="sans-serif" font-size="14" lengthAdjust="spacing" textLength="58" x="407.6893" y="521.9951">OALplus</text></g><!--entity guiplus--><g id="elem_guiplus"><rect fill="#F1F1F1" height="46.2969" rx="2.5" ry="2.5" style="stroke:#181818;stroke-width:0.5;" width="93" x="278.1893" y="147"/><rect fill="#F1F1F1" height="10" style="stroke:#181818;stroke-width:0.5;" width="15" x="351.1893" y="152"/><rect fill="#F1F1F1" height="2" style="stroke:#181818;stroke-width:0.5;" width="4" x="349.1893" y="154"/><rect fill="#F1F1F1" height="2" style="stroke:#181818;stroke-width:0.5;" width="4" x="349.1893" y="158"/><text fill="#000000" font-family="sans-serif" font-size="14" lengthAdjust="spacing" textLength="53" x="293.1893" y="179.9951">GUIplus</text></g><!--entity ecs--><g id="elem_ecs"><rect fill="#F1F1F1" height="78.8906" rx="2.5" ry="2.5" style="stroke:#181818;stroke-width:0.5;" width="126" x="82.6893" y="778.5"/><rect fill="#F1F1F1" height="10" style="stroke:#181818;stroke-width:0.5;" width="15" x="188.6893" y="783.5"/><rect fill="#F1F1F1" height="2" style="stroke:#181818;stroke-width:0.5;" width="4" x="186.6893" y="785.5"/><rect fill="#F1F1F1" height="2" style="stroke:#181818;stroke-width:0.5;" width="4" x="186.6893" y="789.5"/><text fill="#000000" font-family="sans-serif" font-size="14" lengthAdjust="spacing" textLength="44" x="97.6893" y="811.4951">Entity</text><text fill="#000000" font-family="sans-serif" font-size="14" lengthAdjust="spacing" textLength="86" x="97.6893" y="827.792">Component</text><text fill="#000000" font-family="sans-serif" font-size="14" lengthAdjust="spacing" textLength="54" x="97.6893" y="844.0889">System</text></g><!--entity app--><g id="elem_app"><rect fill="#F1F1F1" height="46.2969" rx="2.5" ry="2.5" style="stroke:#181818;stroke-width:0.5;" width="123" x="263.1893" y="41"/><rect fill="#F1F1F1" height="10" style="stroke:#181818;stroke-width:0.5;" width="15" x="366.1893" y="46"/><rect fill="#F1F1F1" height="2" style="stroke:#181818;stroke-width:0.5;" width="4" x="364.1893" y="48"/><rect fill="#F1F1F1" height="2" style="stroke:#181818;stroke-width:0.5;" width="4" x="364.1893" y="52"/><text fill="#000000" font-family="sans-serif" font-size="14" lengthAdjust="spacing" textLength="83" x="278.1893" y="73.9951">Application</text></g><!--link glew to opengl--><g id="link_glew_opengl"><path d="M805.3283,429.056 C794.6373,446.705 782.8261,466.2032 772.1391,483.8442 " fill="none" id="glew-to-opengl" style="stroke:#181818;stroke-width:1.0;"/><polygon fill="#181818" points="769.0303,488.976,777.1147,483.3509,771.621,484.6995,770.2723,479.2058,769.0303,488.976" style="stroke:#181818;stroke-width:1.0;"/></g><!--link glfw to opengl--><g id="link_glfw_opengl"><path d="M709.9893,429.056 C719.8323,446.705 730.6459,466.0948 740.4839,483.7358 " fill="none" id="glfw-to-opengl" style="stroke:#181818;stroke-width:1.0;"/><polygon fill="#181818" points="743.4063,488.976,742.5162,479.1674,740.971,484.6092,735.5292,483.0639,743.4063,488.976" style="stroke:#181818;stroke-width:1.0;"/></g><!--link core to ext_core--><g id="link_core_ext_core"><path d="M318.6893,994.281 C318.6893,1004.6175 318.6893,1017.662 318.6893,1031.4557 C318.6893,1038.3525 318.6893,1045.4366 318.6893,1052.4632 C318.6893,1054.2198 318.6893,1049.9728 318.6893,1051.7184 " fill="none" id="core-to-ext_core" style="stroke:#181818;stroke-width:1.0;"/><polygon fill="#181818" points="318.6893,1057.7184,322.6893,1048.7184,318.6893,1052.7184,314.6893,1048.7184,318.6893,1057.7184" style="stroke:#181818;stroke-width:1.0;"/></g><!--link sslplus to ext_ssl--><g id="link_sslplus_ext_ssl"><path d="M518.0103,841.015 C537.9243,853.159 561.0383,869.694 577.6893,889 C590.3913,903.7265 600.173,923.1908 606.8834,939.348 C607.7222,941.3677 608.513,943.3356 609.2555,945.2362 C609.3483,945.4738 609.4404,945.7103 609.5317,945.9458 C609.5773,946.0635 607.4603,940.5842 607.5055,940.7014 " fill="none" id="sslplus-to-ext_ssl" style="stroke:#181818;stroke-width:1.0;"/><polygon fill="#181818" points="609.6681,946.2981,610.1554,936.4613,607.866,941.6342,602.6931,939.3447,609.6681,946.2981" style="stroke:#181818;stroke-width:1.0;"/></g><!--link eglplus to ext_egl--><g id="link_eglplus_ext_egl"><path d="M536.4643,688.2 C549.6453,701.296 565.7353,718.659 577.6893,736 C588.7273,752.012 598.457,771.5165 605.5561,787.3734 C606.4435,789.3555 607.2898,791.2806 608.0924,793.1348 C608.4937,794.0619 608.8841,794.9712 609.2632,795.8611 C609.358,796.0836 609.4521,796.3048 609.5455,796.5248 C609.5921,796.6348 607.2984,791.2197 607.3447,791.3291 " fill="none" id="eglplus-to-ext_egl" style="stroke:#181818;stroke-width:1.0;"/><polygon fill="#181818" points="609.685,796.8539,609.8578,787.0065,607.7348,792.2499,602.4914,790.1269,609.685,796.8539" style="stroke:#181818;stroke-width:1.0;"/></g><!--link oglplus to ext_opengl--><g id="link_oglplus_ext_opengl"><path d="M454.2643,285.4 C491.7553,287.76 542.5953,296.45 577.6893,324 C592.9868,336.0085 602.8495,355.388 608.9534,372.1804 C609.1441,372.7051 609.3312,373.2274 609.5147,373.7468 C609.5605,373.8766 607.6206,368.3444 607.666,368.4739 " fill="none" id="oglplus-to-ext_opengl" style="stroke:#181818;stroke-width:1.0;"/><polygon fill="#181818" points="609.6516,374.1358,610.4478,364.3192,607.9969,369.4175,602.8985,366.9666,609.6516,374.1358" style="stroke:#181818;stroke-width:1.0;"/></g><!--link guiplus to ext_opengl--><g id="link_guiplus_ext_opengl"><path d="M371.1973,188.77 C426.9313,212.17 520.0033,258.18 577.6893,324 C590.5078,338.6255 600.293,358.0868 606.976,374.2676 C607.8114,376.2902 608.5983,378.2616 609.3366,380.1658 C609.4289,380.4039 607.3658,375.0411 607.4565,375.277 " fill="none" id="guiplus-to-ext_opengl" style="stroke:#181818;stroke-width:1.0;"/><polygon fill="#181818" points="609.6112,380.8767,610.1124,371.0407,607.8156,376.2103,602.646,373.9135,609.6112,380.8767" style="stroke:#181818;stroke-width:1.0;"/></g><!--link oalplus to ext_openal--><g id="link_oalplus_ext_openal"><path d="M490.8303,529.425 C519.0573,540.857 553.5763,558.482 577.6893,583 C591.3263,596.8655 601.1373,616.303 607.6291,632.6615 C608.0349,633.6839 608.4276,634.6943 608.8076,635.6905 C608.9975,636.1886 609.1843,636.6832 609.3679,637.174 C609.4596,637.4194 607.4664,632.0375 607.5566,632.2809 " fill="none" id="oalplus-to-ext_openal" style="stroke:#181818;stroke-width:1.0;"/><polygon fill="#181818" points="609.6408,637.9073,610.2654,628.0783,607.904,633.2187,602.7636,630.8572,609.6408,637.9073" style="stroke:#181818;stroke-width:1.0;"/></g><!--link sslplus to core--><g id="link_sslplus_core"><path d="M453.3763,841.281 C423.4173,869.912 376.0589,915.1725 346.1789,943.7285 " fill="none" id="sslplus-to-core" style="stroke:#181818;stroke-width:1.0;"/><polygon fill="#181818" points="341.8413,947.874,351.1114,944.5476,345.456,944.4195,345.5841,938.7641,341.8413,947.874" style="stroke:#181818;stroke-width:1.0;"/></g><!--link shapes to core--><g id="link_shapes_core"><path d="M239.9033,429.07 C253.0063,519.031 301.4445,851.5986 314.5875,941.8396 " fill="none" id="shapes-to-core" style="stroke:#181818;stroke-width:1.0;"/><polygon fill="#181818" points="315.4523,947.777,318.1134,938.2945,314.7316,942.8292,310.1969,939.4475,315.4523,947.777" style="stroke:#181818;stroke-width:1.0;"/></g><!--link msgbus to sslplus--><g id="link_msgbus_sslplus"><path d="M153.8743,316.1 C154.1323,346.008 157.3863,392.263 172.6893,429 C239.4873,589.36 387.0865,735.3119 447.1665,790.5539 " fill="none" id="msgbus-to-sslplus" style="stroke:#181818;stroke-width:1.0;"/><polygon fill="#181818" points="451.5833,794.615,447.6655,785.5789,447.9026,791.2308,442.2507,791.4679,451.5833,794.615" style="stroke:#181818;stroke-width:1.0;"/></g><!--link msgbus to core--><g id="link_msgbus_core"><path d="M147.7433,316.09 C147.3173,318.757 146.9543,321.419 146.6893,324 C141.9173,370.422 140.0813,382.803 146.6893,429 C161.5053,532.586 242.4883,782.822 278.6893,881 C287.2453,904.205 296.4488,924.4843 305.0158,942.2723 " fill="none" id="msgbus-to-core" style="stroke:#181818;stroke-width:1.0;"/><polygon fill="#181818" points="307.6193,947.678,307.3178,937.8338,305.4497,943.1732,300.1102,941.3051,307.6193,947.678" style="stroke:#181818;stroke-width:1.0;"/></g><!--link eglplus to core--><g id="link_eglplus_core"><path d="M524.6643,688.044 C545.4683,729.655 582.3603,820.978 541.6893,881 C499.8333,942.771 413.4472,961.0061 361.6802,966.7871 " fill="none" id="eglplus-to-core" style="stroke:#181818;stroke-width:1.0;"/><polygon fill="#181818" points="355.7173,967.453,365.1056,970.4294,360.6864,966.8981,364.2177,962.4789,355.7173,967.453" style="stroke:#181818;stroke-width:1.0;"/></g><!--link oglplus to core--><g id="link_oglplus_core"><path d="M396.5983,307.56 C382.6803,347.536 355.6893,434.88 355.6893,511 C355.6893,511 355.6893,511 355.6893,666 C355.6893,772.335 334.2712,892.1822 324.3912,942.1022 " fill="none" id="oglplus-to-core" style="stroke:#181818;stroke-width:1.0;"/><polygon fill="#181818" points="323.2263,947.988,328.8975,939.9359,324.197,943.0831,321.0497,938.3827,323.2263,947.988" style="stroke:#181818;stroke-width:1.0;"/></g><!--link oglplus to shapes--><g id="link_oglplus_shapes"><path d="M370.7653,307.62 C362.8163,312.91 354.4143,318.597 346.6893,324 C318.8983,343.438 292.6316,362.8342 270.6206,379.3482 " fill="none" id="oglplus-to-shapes" style="stroke:#181818;stroke-width:1.0;"/><polygon fill="#181818" points="265.8213,382.949,275.4209,380.7474,269.8207,379.9483,270.6198,374.3482,265.8213,382.949" style="stroke:#181818;stroke-width:1.0;"/></g><!--link oalplus to core--><g id="link_oalplus_core"><path d="M439.1803,535.132 C432.1463,593.224 409.7393,754.31 364.6893,881 C356.2393,904.762 345.6264,924.9757 335.3904,942.5317 " fill="none" id="oalplus-to-core" style="stroke:#181818;stroke-width:1.0;"/><polygon fill="#181818" points="332.3683,947.715,340.357,941.9548,334.8867,943.3956,333.4459,937.9253,332.3683,947.715" style="stroke:#181818;stroke-width:1.0;"/></g><!--link guiplus to core--><g id="link_guiplus_core"><path d="M323.7383,193.26 C322.0463,234.84 318.6893,327.178 318.6893,405 C318.6893,405 318.6893,405 318.6893,666 C318.6893,771.556 318.6893,891.727 318.6893,941.877 " fill="none" id="guiplus-to-core" style="stroke:#181818;stroke-width:1.0;"/><polygon fill="#181818" points="318.6893,947.877,322.6893,938.877,318.6893,942.877,314.6893,938.877,318.6893,947.877" style="stroke:#181818;stroke-width:1.0;"/></g><!--link ecs to core--><g id="link_ecs_core"><path d="M190.2412,857.886 C222.8782,886.373 261.5079,920.0905 288.5519,943.6955 " fill="none" id="ecs-to-core" style="stroke:#181818;stroke-width:1.0;"/><polygon fill="#181818" points="293.0723,947.641,288.9221,938.7092,289.3053,944.3531,283.6615,944.7363,293.0723,947.641" style="stroke:#181818;stroke-width:1.0;"/></g><!--link app to core--><g id="link_app_core"><path d="M262.9923,83.06 C181.0913,111.28 46.6893,174.23 46.6893,283.5 C46.6893,283.5 46.6893,283.5 46.6893,666 C46.6893,761.89 6,805.168 64.6893,881 C117.0243,948.622 218.345,964.6385 275.288,968.5055 " fill="none" id="app-to-core" style="stroke:#181818;stroke-width:1.0;"/><polygon fill="#181818" points="281.2743,968.912,272.5659,964.3114,276.2857,968.5732,272.0239,972.293,281.2743,968.912" style="stroke:#181818;stroke-width:1.0;"/></g><!--link app to eglplus--><g id="link_app_eglplus"><path d="M368.7373,87.26 C428.4413,120.92 527.6893,190.82 527.6893,283.5 C527.6893,283.5 527.6893,283.5 527.6893,407 C527.6893,493.93 519.5879,591.145 515.4279,635.707 " fill="none" id="app-to-eglplus" style="stroke:#181818;stroke-width:1.0;"/><polygon fill="#181818" points="514.8702,641.681,519.6895,633.0918,515.335,636.7026,511.7241,632.3482,514.8702,641.681" style="stroke:#181818;stroke-width:1.0;"/></g><!--link app to oglplus--><g id="link_app_oglplus"><path d="M347.5423,87.19 C361.8793,102.56 379.3583,124.28 388.6893,147 C404.2813,184.96 406.2427,227.5308 405.7867,255.3208 " fill="none" id="app-to-oglplus" style="stroke:#181818;stroke-width:1.0;"/><polygon fill="#181818" points="405.6883,261.32,409.8354,252.3868,405.7703,256.3207,401.8364,252.2556,405.6883,261.32" style="stroke:#181818;stroke-width:1.0;"/></g><!--link app to oalplus--><g id="link_app_oalplus"><path d="M351.5353,87.01 C387.9773,118.98 450.9403,182.23 471.6893,253 C496.4913,337.597 467.896,437.785 452.059,483.093 " fill="none" id="app-to-oalplus" style="stroke:#181818;stroke-width:1.0;"/><polygon fill="#181818" points="450.0793,488.757,456.8249,481.5809,451.7291,484.037,449.273,478.9412,450.0793,488.757" style="stroke:#181818;stroke-width:1.0;"/></g><!--link app to guiplus--><g id="link_app_guiplus"><path d="M324.6893,87.06 C324.6893,104.7 324.6893,123.34 324.6893,140.98 " fill="none" id="app-to-guiplus" style="stroke:#181818;stroke-width:1.0;"/><polygon fill="#181818" points="324.6893,146.98,328.6893,137.98,324.6893,141.98,320.6893,137.98,324.6893,146.98" style="stroke:#181818;stroke-width:1.0;"/></g><!--link app to shapes--><g id="link_app_shapes"><path d="M301.6563,87.11 C287.2443,102.46 269.7473,124.17 260.6893,147 C228.0872,229.16 230.9631,331.2165 234.2611,376.9985 " fill="none" id="app-to-shapes" style="stroke:#181818;stroke-width:1.0;"/><polygon fill="#181818" points="234.6923,382.983,238.0353,373.7189,234.333,377.9959,230.0559,374.2937,234.6923,382.983" style="stroke:#181818;stroke-width:1.0;"/></g><!--link app to msgbus--><g id="link_app_msgbus"><path d="M295.0713,87.26 C275.8283,102.66 251.0082,124.39 232.6893,147 C205.7122,180.29 185.093,218.6854 171.164,247.5754 " fill="none" id="app-to-msgbus" style="stroke:#181818;stroke-width:1.0;"/><polygon fill="#181818" points="168.5583,252.98,176.07,246.6103,170.7297,248.4762,168.8638,243.1359,168.5583,252.98" style="stroke:#181818;stroke-width:1.0;"/></g><!--link guiplus to oglplus--><!--link oglplus to oalplus--><!--link oalplus to eglplus--><!--link eglplus to sslplus--><!--link msgbus to shapes--><!--link shapes to oalplus--><!--SRC=[bLHTJy8m57tVhrZYCq- -cm3EnMI6Xsb8PCHqeux6qZQqHD3utsrlswsEZI5FFRUdvtuT9b3rWMeS9qU5zmpH6CaO7zLRnVSu_evYzwluJd26cOfNCywbMXjUQKxnJKRghPhH0-vZvoUfyEuU-1BEcx4NIfTKiESzgh1zPWBAm96NhnafuSKN9MN8_Od4G9jIqluk5mApFCz0Zkkp8LwbYEi1nIIrQePmbP99EoIMPiaIr6gAFqV6acOForj7VXyZcxxJjkt_r8ekZ7BQIgAEPAivJGaRCDrSsn4KZ2zxNPDdWXwaDOoavjnBsoA17GkEVQGdBAKkg60p9xYJTTclfvVQfDMB7Kgx26Zy0cqQqD0WBNrvR6ZrWGpH4gQ8EXLixaC5i_z6MstL-sWg12KLKeGpe24Xp8x0PfF9dJD514uAS0JV2nFm7u_8RQ49QXov4JKnZIFUYVaCjh5ks8tbJnZf_64scnxMssAxGy3U7q48A65r4E2N0iu_OK702GktibK0z3pFWNUEnxoBqL_ib-wnAyL3PzUsajMMR3QOhGFfffFmpgLfMWhkV8cuvrrtdk6LhSmluppPBm00]--></g></svg>