<?xml version="1.0" encoding="UTF-8" standalone="no"?><svg xmlns="http://www.w3.org/2000/svg" xmlns:xlink="http://www.w3.org/1999/xlink" contentScriptType="application/ecmascript" contentStyleType="text/css" height="402px" preserveAspectRatio="none" style="width:612px;height:402px;" version="1.1" viewBox="0 0 612 402" width="612px" zoomAndPan="magnify"><defs><filter height="300%" id="f1rjagy9eznhvp" width="300%" x="-1" y="-1"><feGaussianBlur result="blurOut" stdDeviation="2.0"/><feColorMatrix in="blurOut" result="blurOut2" type="matrix" values="0 0 0 0 0 0 0 0 0 0 0 0 0 0 0 0 0 0 .4 0"/><feOffset dx="4.0" dy="4.0" in="blurOut2" result="blurOut3"/><feBlend in="SourceGraphic" in2="blurOut3" mode="normal"/></filter></defs><g><!--MD5=[0d482ad21d5c7c11aa976e45da5ecfe6]
entity core--><rect fill="#FEFECE" filter="url(#f1rjagy9eznhvp)" height="46.2969" style="stroke:#A80036;stroke-width:1.5;" width="73" x="287" y="342"/><rect fill="#FEFECE" height="10" style="stroke:#A80036;stroke-width:1.5;" width="15" x="340" y="347"/><rect fill="#FEFECE" height="2" style="stroke:#A80036;stroke-width:1.5;" width="4" x="338" y="349"/><rect fill="#FEFECE" height="2" style="stroke:#A80036;stroke-width:1.5;" width="4" x="338" y="353"/><text fill="#000000" font-family="sans-serif" font-size="14" lengthAdjust="spacing" textLength="33" x="302" y="374.9951">Core</text><!--MD5=[2b813387ac1a9af09fa3e6399e0fe86c]
entity ssl--><rect fill="#FEFECE" filter="url(#f1rjagy9eznhvp)" height="46.2969" style="stroke:#A80036;stroke-width:1.5;" width="65" x="7" y="236"/><rect fill="#FEFECE" height="10" style="stroke:#A80036;stroke-width:1.5;" width="15" x="52" y="241"/><rect fill="#FEFECE" height="2" style="stroke:#A80036;stroke-width:1.5;" width="4" x="50" y="243"/><rect fill="#FEFECE" height="2" style="stroke:#A80036;stroke-width:1.5;" width="4" x="50" y="247"/><text fill="#000000" font-family="sans-serif" font-size="14" lengthAdjust="spacing" textLength="25" x="22" y="268.9951">SSL</text><!--MD5=[cdc5d2131b72f1aaf3f0e272e254324b]
entity shapes--><rect fill="#FEFECE" filter="url(#f1rjagy9eznhvp)" height="46.2969" style="stroke:#A80036;stroke-width:1.5;" width="92" x="178.5" y="236"/><rect fill="#FEFECE" height="10" style="stroke:#A80036;stroke-width:1.5;" width="15" x="250.5" y="241"/><rect fill="#FEFECE" height="2" style="stroke:#A80036;stroke-width:1.5;" width="4" x="248.5" y="243"/><rect fill="#FEFECE" height="2" style="stroke:#A80036;stroke-width:1.5;" width="4" x="248.5" y="247"/><text fill="#000000" font-family="sans-serif" font-size="14" lengthAdjust="spacing" textLength="52" x="193.5" y="268.9951">Shapes</text><!--MD5=[4c971703817ce75988139e5bccad6c2f]
entity msgbus--><rect fill="#FEFECE" filter="url(#f1rjagy9eznhvp)" height="62.5938" style="stroke:#A80036;stroke-width:1.5;" width="103" x="26" y="113"/><rect fill="#FEFECE" height="10" style="stroke:#A80036;stroke-width:1.5;" width="15" x="109" y="118"/><rect fill="#FEFECE" height="2" style="stroke:#A80036;stroke-width:1.5;" width="4" x="107" y="120"/><rect fill="#FEFECE" height="2" style="stroke:#A80036;stroke-width:1.5;" width="4" x="107" y="124"/><text fill="#000000" font-family="sans-serif" font-size="14" lengthAdjust="spacing" textLength="63" x="41" y="145.9951">Message</text><text fill="#000000" font-family="sans-serif" font-size="14" lengthAdjust="spacing" textLength="27" x="41" y="162.292">Bus</text><!--MD5=[f21c4a83c42dbfe58de9635d1ee07c7c]
entity eglplus--><rect fill="#FEFECE" filter="url(#f1rjagy9eznhvp)" height="46.2969" style="stroke:#A80036;stroke-width:1.5;" width="96" x="376.5" y="236"/><rect fill="#FEFECE" height="10" style="stroke:#A80036;stroke-width:1.5;" width="15" x="452.5" y="241"/><rect fill="#FEFECE" height="2" style="stroke:#A80036;stroke-width:1.5;" width="4" x="450.5" y="243"/><rect fill="#FEFECE" height="2" style="stroke:#A80036;stroke-width:1.5;" width="4" x="450.5" y="247"/><text fill="#000000" font-family="sans-serif" font-size="14" lengthAdjust="spacing" textLength="56" x="391.5" y="268.9951">EGLplus</text><!--MD5=[e598028ba2bdabf3904d76427277fd15]
entity oglplus--><rect fill="#FEFECE" filter="url(#f1rjagy9eznhvp)" height="46.2969" style="stroke:#A80036;stroke-width:1.5;" width="98" x="273.5" y="121.5"/><rect fill="#FEFECE" height="10" style="stroke:#A80036;stroke-width:1.5;" width="15" x="351.5" y="126.5"/><rect fill="#FEFECE" height="2" style="stroke:#A80036;stroke-width:1.5;" width="4" x="349.5" y="128.5"/><rect fill="#FEFECE" height="2" style="stroke:#A80036;stroke-width:1.5;" width="4" x="349.5" y="132.5"/><text fill="#000000" font-family="sans-serif" font-size="14" lengthAdjust="spacing" textLength="58" x="288.5" y="154.4951">OGLplus</text><!--MD5=[0056fbd0491e57ed7fbb94ea9c987324]
entity oalplus--><rect fill="#FEFECE" filter="url(#f1rjagy9eznhvp)" height="46.2969" style="stroke:#A80036;stroke-width:1.5;" width="96" x="477.5" y="121.5"/><rect fill="#FEFECE" height="10" style="stroke:#A80036;stroke-width:1.5;" width="15" x="553.5" y="126.5"/><rect fill="#FEFECE" height="2" style="stroke:#A80036;stroke-width:1.5;" width="4" x="551.5" y="128.5"/><rect fill="#FEFECE" height="2" style="stroke:#A80036;stroke-width:1.5;" width="4" x="551.5" y="132.5"/><text fill="#000000" font-family="sans-serif" font-size="14" lengthAdjust="spacing" textLength="56" x="492.5" y="154.4951">OALplus</text><!--MD5=[4541fb81c80c07473fe4b07432ef0971]
entity app--><rect fill="#FEFECE" filter="url(#f1rjagy9eznhvp)" height="46.2969" style="stroke:#A80036;stroke-width:1.5;" width="115" x="367" y="7"/><rect fill="#FEFECE" height="10" style="stroke:#A80036;stroke-width:1.5;" width="15" x="462" y="12"/><rect fill="#FEFECE" height="2" style="stroke:#A80036;stroke-width:1.5;" width="4" x="460" y="14"/><rect fill="#FEFECE" height="2" style="stroke:#A80036;stroke-width:1.5;" width="4" x="460" y="18"/><text fill="#000000" font-family="sans-serif" font-size="14" lengthAdjust="spacing" textLength="75" x="382" y="39.9951">Application</text><!--MD5=[99d995f1999ae07c4fee1cb085e69023]
link ssl to core--><path d="M72.2,271.99 C81.06,275.24 90.64,278.76 99.5,282 C163.09,305.3 236.85,332.29 281.83,348.75 " fill="none" id="ssl-to-core" style="stroke:#A80036;stroke-width:1.0;"/><polygon fill="#A80036" points="286.64,350.51,279.5555,343.6682,281.9427,348.7967,276.8142,351.1839,286.64,350.51" style="stroke:#A80036;stroke-width:1.0;"/><!--MD5=[221af3e5be4e8aaa06c68f59a403c35c]
link shapes to core--><path d="M245.5,282.06 C261.11,298.46 282.48,320.91 298.9,338.16 " fill="none" id="shapes-to-core" style="stroke:#A80036;stroke-width:1.0;"/><polygon fill="#A80036" points="302.53,341.98,299.237,332.698,299.0885,338.3529,293.4336,338.2044,302.53,341.98" style="stroke:#A80036;stroke-width:1.0;"/><!--MD5=[fe3afd6ca571ca160ffec257105b10ca]
link msgbus to ssl--><path d="M67.12,176.24 C61.34,193.34 54.22,214.43 48.65,230.9 " fill="none" id="msgbus-to-ssl" style="stroke:#A80036;stroke-width:1.0;"/><polygon fill="#A80036" points="46.98,235.86,53.647,228.6108,48.5783,231.1223,46.0667,226.0536,46.98,235.86" style="stroke:#A80036;stroke-width:1.0;"/><!--MD5=[db1c66775a76328d059c1907c9245561]
link msgbus to core--><path d="M90.13,176.28 C103.77,206.39 127.99,252 160.5,282 C195.78,314.56 246.41,337.3 281.86,350.45 " fill="none" id="msgbus-to-core" style="stroke:#A80036;stroke-width:1.0;"/><polygon fill="#A80036" points="286.97,352.32,279.9106,345.4523,282.279,350.5895,277.1418,352.9579,286.97,352.32" style="stroke:#A80036;stroke-width:1.0;"/><!--MD5=[bab9bb75922a153f46cb8db8a2df3d9a]
link eglplus to core--><path d="M403.08,282.06 C387.15,298.46 365.35,320.91 348.6,338.16 " fill="none" id="eglplus-to-core" style="stroke:#A80036;stroke-width:1.0;"/><polygon fill="#A80036" points="344.89,341.98,354.0315,338.3148,348.3752,338.3948,348.2952,332.7385,344.89,341.98" style="stroke:#A80036;stroke-width:1.0;"/><!--MD5=[def59b5e0b241f19f9b568d127e5d207]
link oglplus to core--><path d="M322.6,167.65 C322.79,207.9 323.17,292.88 323.37,336.66 " fill="none" id="oglplus-to-core" style="stroke:#A80036;stroke-width:1.0;"/><polygon fill="#A80036" points="323.4,341.79,327.3485,332.7673,323.3714,336.7901,319.3486,332.813,323.4,341.79" style="stroke:#A80036;stroke-width:1.0;"/><!--MD5=[9af95b53a5b37e5a9811acf7a635a697]
link oglplus to shapes--><path d="M303.14,167.73 C287.03,186.22 264.08,212.56 247.13,232.02 " fill="none" id="oglplus-to-shapes" style="stroke:#A80036;stroke-width:1.0;"/><polygon fill="#A80036" points="243.82,235.82,252.7479,231.6616,247.1044,232.05,246.716,226.4065,243.82,235.82" style="stroke:#A80036;stroke-width:1.0;"/><!--MD5=[b18fa7a7262397a62e3e1a448c0c9cf3]
link oalplus to core--><path d="M525.13,167.62 C523.53,196.9 516.71,248.69 489.5,282 C457.78,320.83 403.08,342.79 365.18,354.02 " fill="none" id="oalplus-to-core" style="stroke:#A80036;stroke-width:1.0;"/><polygon fill="#A80036" points="360.18,355.46,369.9363,356.8068,364.9838,354.0732,367.7174,349.1207,360.18,355.46" style="stroke:#A80036;stroke-width:1.0;"/><!--MD5=[3ca5629ec7114117f93847c258b7b725]
link app to core--><path d="M482.05,42.95 C520.01,54.14 566.92,75.05 590.5,113 C605.28,136.78 597.92,149 590.5,176 C575.98,228.85 569.12,246.34 527.5,282 C479.91,322.77 409.46,344.97 365.04,355.65 " fill="none" id="app-to-core" style="stroke:#A80036;stroke-width:1.0;"/><polygon fill="#A80036" points="360.03,356.84,369.712,358.6454,364.8939,355.6813,367.858,350.8632,360.03,356.84" style="stroke:#A80036;stroke-width:1.0;"/><!--MD5=[7756efb99bd02fdfc0fe78f87f35d18f]
link app to eglplus--><path d="M424.5,53.18 C424.5,94.97 424.5,185.23 424.5,230.68 " fill="none" id="app-to-eglplus" style="stroke:#A80036;stroke-width:1.0;"/><polygon fill="#A80036" points="424.5,235.73,428.5,226.73,424.5,230.73,420.5,226.73,424.5,235.73" style="stroke:#A80036;stroke-width:1.0;"/><!--MD5=[da52b3a056b35e4285aa15ec90cc952b]
link app to oglplus--><path d="M404.35,53.23 C387.58,71.72 363.7,98.06 346.05,117.52 " fill="none" id="app-to-oglplus" style="stroke:#A80036;stroke-width:1.0;"/><polygon fill="#A80036" points="342.61,121.32,351.62,117.3426,345.9698,117.6171,345.6953,111.9669,342.61,121.32" style="stroke:#A80036;stroke-width:1.0;"/><!--MD5=[cb16e8e0954218cf86a1793a98761615]
link app to oalplus--><path d="M444.45,53.23 C461.05,71.72 484.71,98.06 502.18,117.52 " fill="none" id="app-to-oalplus" style="stroke:#A80036;stroke-width:1.0;"/><polygon fill="#A80036" points="505.59,121.32,502.5604,111.9487,502.2523,117.5972,496.6038,117.2891,505.59,121.32" style="stroke:#A80036;stroke-width:1.0;"/><!--MD5=[95f4d793c3f86e3dc2c56c442473564f]
link app to shapes--><path d="M366.76,44.89 C329.53,56.83 283.06,77.84 255.5,113 C228.78,147.09 223.79,199.01 223.51,230.59 " fill="none" id="app-to-shapes" style="stroke:#A80036;stroke-width:1.0;"/><polygon fill="#A80036" points="223.51,235.86,227.51,226.86,223.51,230.86,219.51,226.86,223.51,235.86" style="stroke:#A80036;stroke-width:1.0;"/><!--MD5=[cdfa5a271f6e2413178aed7dc2d121bb]
@startuml

component [Core] as core
component [SSL] as ssl
component [Shapes] as shapes
component [Message\nBus] as msgbus
component [EGLplus] as eglplus
component [OGLplus] as oglplus
component [OALplus] as oalplus
component [OALplus] as oalplus
component [Application] as app

ssl - -> core
shapes - -> core
msgbus - -> ssl
msgbus - -> core
eglplus - -> core
oglplus - -> core
oglplus - -> shapes
oalplus - -> core
app - -> core
app - -> eglplus
app - -> oglplus
app - -> oalplus
app - -> shapes

@enduml

PlantUML version 1.2021.3(Mon Mar 22 17:53:19 CET 2021)
(GPL source distribution)
Java Runtime: OpenJDK Runtime Environment
JVM: OpenJDK 64-Bit Server VM
Default Encoding: UTF-8
Language: en
Country: US
--></g></svg>