<?xml version="1.0" encoding="UTF-8" standalone="no"?>
<svg xmlns="http://www.w3.org/2000/svg" xmlns:xlink="http://www.w3.org/1999/xlink" contentStyleType="text/css" height="427px" preserveAspectRatio="none" style="width:818px;height:427px;background:#FFFFFF;" version="1.1" viewBox="0 0 818 427" width="818px" zoomAndPan="magnify"><defs/><g><!--MD5=[0d482ad21d5c7c11aa976e45da5ecfe6]
entity core--><g id="elem_core"><rect fill="#F1F1F1" height="46.2969" rx="2.5" ry="2.5" style="stroke:#181818;stroke-width:0.5;" width="74" x="342.8614" y="375"/><rect fill="#F1F1F1" height="10" style="stroke:#181818;stroke-width:0.5;" width="15" x="396.8614" y="380"/><rect fill="#F1F1F1" height="2" style="stroke:#181818;stroke-width:0.5;" width="4" x="394.8614" y="382"/><rect fill="#F1F1F1" height="2" style="stroke:#181818;stroke-width:0.5;" width="4" x="394.8614" y="386"/><text fill="#000000" font-family="sans-serif" font-size="14" lengthAdjust="spacing" textLength="34" x="357.8614" y="407.9951">Core</text></g><!--MD5=[2ac6718fdcc08e369529095954fd530a]
entity sslplus--><g id="elem_sslplus"><rect fill="#F1F1F1" height="46.2969" rx="2.5" ry="2.5" style="stroke:#181818;stroke-width:0.5;" width="95" x="83.3609" y="252.5"/><rect fill="#F1F1F1" height="10" style="stroke:#181818;stroke-width:0.5;" width="15" x="158.3609" y="257.5"/><rect fill="#F1F1F1" height="2" style="stroke:#181818;stroke-width:0.5;" width="4" x="156.3609" y="259.5"/><rect fill="#F1F1F1" height="2" style="stroke:#181818;stroke-width:0.5;" width="4" x="156.3609" y="263.5"/><text fill="#000000" font-family="sans-serif" font-size="14" lengthAdjust="spacing" textLength="55" x="98.3609" y="285.4951">SSLplus</text></g><!--MD5=[cdc5d2131b72f1aaf3f0e272e254324b]
entity shapes--><g id="elem_shapes"><rect fill="#F1F1F1" height="46.2969" rx="2.5" ry="2.5" style="stroke:#181818;stroke-width:0.5;" width="92" x="284.8614" y="252.5"/><rect fill="#F1F1F1" height="10" style="stroke:#181818;stroke-width:0.5;" width="15" x="356.8614" y="257.5"/><rect fill="#F1F1F1" height="2" style="stroke:#181818;stroke-width:0.5;" width="4" x="354.8614" y="259.5"/><rect fill="#F1F1F1" height="2" style="stroke:#181818;stroke-width:0.5;" width="4" x="354.8614" y="263.5"/><text fill="#000000" font-family="sans-serif" font-size="14" lengthAdjust="spacing" textLength="52" x="299.8614" y="285.4951">Shapes</text></g><!--MD5=[4c971703817ce75988139e5bccad6c2f]
entity msgbus--><g id="elem_msgbus"><rect fill="#F1F1F1" height="62.5938" rx="2.5" ry="2.5" style="stroke:#181818;stroke-width:0.5;" width="101" x="171.3614" y="113"/><rect fill="#F1F1F1" height="10" style="stroke:#181818;stroke-width:0.5;" width="15" x="252.3614" y="118"/><rect fill="#F1F1F1" height="2" style="stroke:#181818;stroke-width:0.5;" width="4" x="250.3614" y="120"/><rect fill="#F1F1F1" height="2" style="stroke:#181818;stroke-width:0.5;" width="4" x="250.3614" y="124"/><text fill="#000000" font-family="sans-serif" font-size="14" lengthAdjust="spacing" textLength="61" x="186.3614" y="145.9951">Message</text><text fill="#000000" font-family="sans-serif" font-size="14" lengthAdjust="spacing" textLength="25" x="186.3614" y="162.292">Bus</text></g><!--MD5=[f21c4a83c42dbfe58de9635d1ee07c7c]
entity eglplus--><g id="elem_eglplus"><rect fill="#F1F1F1" height="46.2969" rx="2.5" ry="2.5" style="stroke:#181818;stroke-width:0.5;" width="97" x="483.3614" y="252.5"/><rect fill="#F1F1F1" height="10" style="stroke:#181818;stroke-width:0.5;" width="15" x="560.3614" y="257.5"/><rect fill="#F1F1F1" height="2" style="stroke:#181818;stroke-width:0.5;" width="4" x="558.3614" y="259.5"/><rect fill="#F1F1F1" height="2" style="stroke:#181818;stroke-width:0.5;" width="4" x="558.3614" y="263.5"/><text fill="#000000" font-family="sans-serif" font-size="14" lengthAdjust="spacing" textLength="57" x="498.3614" y="285.4951">EGLplus</text></g><!--MD5=[e598028ba2bdabf3904d76427277fd15]
entity oglplus--><g id="elem_oglplus"><rect fill="#F1F1F1" height="46.2969" rx="2.5" ry="2.5" style="stroke:#181818;stroke-width:0.5;" width="99" x="379.3614" y="121.5"/><rect fill="#F1F1F1" height="10" style="stroke:#181818;stroke-width:0.5;" width="15" x="458.3614" y="126.5"/><rect fill="#F1F1F1" height="2" style="stroke:#181818;stroke-width:0.5;" width="4" x="456.3614" y="128.5"/><rect fill="#F1F1F1" height="2" style="stroke:#181818;stroke-width:0.5;" width="4" x="456.3614" y="132.5"/><text fill="#000000" font-family="sans-serif" font-size="14" lengthAdjust="spacing" textLength="59" x="394.3614" y="154.4951">OGLplus</text></g><!--MD5=[0056fbd0491e57ed7fbb94ea9c987324]
entity oalplus--><g id="elem_oalplus"><rect fill="#F1F1F1" height="46.2969" rx="2.5" ry="2.5" style="stroke:#181818;stroke-width:0.5;" width="98" x="584.8614" y="121.5"/><rect fill="#F1F1F1" height="10" style="stroke:#181818;stroke-width:0.5;" width="15" x="662.8614" y="126.5"/><rect fill="#F1F1F1" height="2" style="stroke:#181818;stroke-width:0.5;" width="4" x="660.8614" y="128.5"/><rect fill="#F1F1F1" height="2" style="stroke:#181818;stroke-width:0.5;" width="4" x="660.8614" y="132.5"/><text fill="#000000" font-family="sans-serif" font-size="14" lengthAdjust="spacing" textLength="58" x="599.8614" y="154.4951">OALplus</text></g><!--MD5=[f58456ccec15107b0d3279611d67a5c5]
entity ecs--><g id="elem_ecs"><rect fill="#F1F1F1" height="78.8906" rx="2.5" ry="2.5" style="stroke:#181818;stroke-width:0.5;" width="126" x="686.8614" y="236"/><rect fill="#F1F1F1" height="10" style="stroke:#181818;stroke-width:0.5;" width="15" x="792.8614" y="241"/><rect fill="#F1F1F1" height="2" style="stroke:#181818;stroke-width:0.5;" width="4" x="790.8614" y="243"/><rect fill="#F1F1F1" height="2" style="stroke:#181818;stroke-width:0.5;" width="4" x="790.8614" y="247"/><text fill="#000000" font-family="sans-serif" font-size="14" lengthAdjust="spacing" textLength="44" x="701.8614" y="268.9951">Entity</text><text fill="#000000" font-family="sans-serif" font-size="14" lengthAdjust="spacing" textLength="86" x="701.8614" y="285.292">Component</text><text fill="#000000" font-family="sans-serif" font-size="14" lengthAdjust="spacing" textLength="54" x="701.8614" y="301.5889">System</text></g><!--MD5=[4541fb81c80c07473fe4b07432ef0971]
entity app--><g id="elem_app"><rect fill="#F1F1F1" height="46.2969" rx="2.5" ry="2.5" style="stroke:#181818;stroke-width:0.5;" width="123" x="315.3614" y="7"/><rect fill="#F1F1F1" height="10" style="stroke:#181818;stroke-width:0.5;" width="15" x="418.3614" y="12"/><rect fill="#F1F1F1" height="2" style="stroke:#181818;stroke-width:0.5;" width="4" x="416.3614" y="14"/><rect fill="#F1F1F1" height="2" style="stroke:#181818;stroke-width:0.5;" width="4" x="416.3614" y="18"/><text fill="#000000" font-family="sans-serif" font-size="14" lengthAdjust="spacing" textLength="83" x="330.3614" y="39.9951">Application</text></g><!--MD5=[4870c9f75fef21599445ff782e3820a2]
link sslplus to core--><g id="link_sslplus_core"><path d="M173.1754,298.537 C183.8094,303.989 195.2234,309.765 205.8614,315 C250.7384,337.0851 302.6634,361.3962 338.0274,377.769 " fill="none" id="sslplus-to-core" style="stroke:#181818;stroke-width:1.0;"/><polygon fill="#181818" points="342.6884,379.9254,336.1986,372.5171,338.1502,377.8267,332.8406,379.7782,342.6884,379.9254" style="stroke:#181818;stroke-width:1.0;"/></g><!--MD5=[221af3e5be4e8aaa06c68f59a403c35c]
link shapes to core--><g id="link_shapes_core"><path d="M339.8484,298.602 C348.0164,318.689 360.0924,348.3859 368.8404,369.8978 " fill="none" id="shapes-to-core" style="stroke:#181818;stroke-width:1.0;"/><polygon fill="#181818" points="370.7644,374.6305,371.0794,364.7867,368.8809,369.9988,363.6687,367.8003,370.7644,374.6305" style="stroke:#181818;stroke-width:1.0;"/></g><!--MD5=[41a95efdae3d2f898cb50b548db62b97]
link msgbus to sslplus--><g id="link_msgbus_sslplus"><path d="M200.2954,176.071 C184.8874,197.913 164.3614,227.01 149.6294,247.895 " fill="none" id="msgbus-to-sslplus" style="stroke:#181818;stroke-width:1.0;"/><polygon fill="#181818" points="146.5774,252.221,155.0345,247.1734,149.46,248.1356,148.4978,242.5612,146.5774,252.221" style="stroke:#181818;stroke-width:1.0;"/></g><!--MD5=[db1c66775a76328d059c1907c9245561]
link msgbus to core--><g id="link_msgbus_core"><path d="M223.8344,176.222 C227.4654,212.292 237.7534,272.57 266.8614,315 C284.8684,341.2494 314.1374,362.1465 338.3754,376.2749 " fill="none" id="msgbus-to-core" style="stroke:#181818;stroke-width:1.0;"/><polygon fill="#181818" points="342.8384,378.834,337.0205,370.8872,338.5009,376.3469,333.0411,377.8272,342.8384,378.834" style="stroke:#181818;stroke-width:1.0;"/></g><!--MD5=[bab9bb75922a153f46cb8db8a2df3d9a]
link eglplus to core--><g id="link_eglplus_core"><path d="M503.9814,298.602 C477.9234,319.26 439.0434,350.0825 411.7584,371.7125 " fill="none" id="eglplus-to-core" style="stroke:#181818;stroke-width:1.0;"/><polygon fill="#181818" points="407.8204,374.8349,417.3581,372.379,411.7388,371.729,412.3887,366.1096,407.8204,374.8349" style="stroke:#181818;stroke-width:1.0;"/></g><!--MD5=[def59b5e0b241f19f9b568d127e5d207]
link oglplus to core--><g id="link_oglplus_core"><path d="M424.5124,167.819 C415.5224,213.961 394.9184,319.715 385.1654,369.7751 " fill="none" id="oglplus-to-core" style="stroke:#181818;stroke-width:1.0;"/><polygon fill="#181818" points="384.1994,374.7311,389.8468,366.6622,385.1557,369.8234,381.9945,365.1322,384.1994,374.7311" style="stroke:#181818;stroke-width:1.0;"/></g><!--MD5=[9af95b53a5b37e5a9811acf7a635a697]
link oglplus to shapes--><g id="link_oglplus_shapes"><path d="M412.0144,167.676 C395.0454,190.012 368.8674,224.472 350.8564,248.18 " fill="none" id="oglplus-to-shapes" style="stroke:#181818;stroke-width:1.0;"/><polygon fill="#181818" points="347.8154,252.182,356.4446,247.4347,350.8398,248.2004,350.0741,242.5956,347.8154,252.182" style="stroke:#181818;stroke-width:1.0;"/></g><!--MD5=[b18fa7a7262397a62e3e1a448c0c9cf3]
link oalplus to core--><g id="link_oalplus_core"><path d="M635.4624,167.643 C636.7874,203.073 634.1444,272.799 597.8614,315 C553.1314,367.0238 471.9304,386.1077 422.2524,393.0626 " fill="none" id="oalplus-to-core" style="stroke:#181818;stroke-width:1.0;"/><polygon fill="#181818" points="417.2474,393.7371,426.7007,396.5004,422.2027,393.0699,425.6332,388.572,417.2474,393.7371" style="stroke:#181818;stroke-width:1.0;"/></g><!--MD5=[f8788864f7992086e4cddd57fe502401]
link ecs to core--><g id="link_ecs_core"><path d="M686.8094,304.593 C677.8304,308.265 668.6584,311.843 659.8614,315 C576.7904,344.8117 477.0884,372.029 421.8774,386.3731 " fill="none" id="ecs-to-core" style="stroke:#181818;stroke-width:1.0;"/><polygon fill="#181818" points="417.0024,387.6364,426.718,389.2509,421.8425,386.3822,424.7112,381.5067,417.0024,387.6364" style="stroke:#181818;stroke-width:1.0;"/></g><!--MD5=[3ca5629ec7114117f93847c258b7b725]
link app to core--><g id="link_app_core"><path d="M315.2594,43.192 C267.5614,54.963 201.7654,76.501 153.8614,113 C75.9663,172.348 6,237.499 65.8609,315 C99.0141,357.9229 259.8904,382.6627 337.6334,392.2925 " fill="none" id="app-to-core" style="stroke:#181818;stroke-width:1.0;"/><polygon fill="#181818" points="342.6314,392.905,334.1851,387.8393,337.6686,392.2964,333.2115,395.7799,342.6314,392.905" style="stroke:#181818;stroke-width:1.0;"/></g><!--MD5=[7756efb99bd02fdfc0fe78f87f35d18f]
link app to eglplus--><g id="link_app_eglplus"><path d="M424.6764,53.016 C449.5414,66.839 478.3244,86.999 495.8614,113 C523.5344,154.03 530.2654,212.979 531.7074,247.146 " fill="none" id="app-to-eglplus" style="stroke:#181818;stroke-width:1.0;"/><polygon fill="#181818" points="531.8964,252.411,535.5698,243.2728,531.7164,247.4142,527.575,243.5608,531.8964,252.411" style="stroke:#181818;stroke-width:1.0;"/></g><!--MD5=[da52b3a056b35e4285aa15ec90cc952b]
link app to oglplus--><g id="link_app_oglplus"><path d="M387.1344,53.226 C395.5384,71.408 407.4544,97.187 416.4014,116.545 " fill="none" id="app-to-oglplus" style="stroke:#181818;stroke-width:1.0;"/><polygon fill="#181818" points="418.6084,121.32,418.4644,111.4722,416.5111,116.7811,411.2022,114.8278,418.6084,121.32" style="stroke:#181818;stroke-width:1.0;"/></g><!--MD5=[cb16e8e0954218cf86a1793a98761615]
link app to oalplus--><g id="link_app_oalplus"><path d="M427.3294,53.092 C471.3344,72.355 534.9894,100.22 579.9754,119.912 " fill="none" id="app-to-oalplus" style="stroke:#181818;stroke-width:1.0;"/><polygon fill="#181818" points="584.8164,122.031,578.1769,114.7566,580.2363,120.0253,574.9677,122.0847,584.8164,122.031" style="stroke:#181818;stroke-width:1.0;"/></g><!--MD5=[95f4d793c3f86e3dc2c56c442473564f]
link app to shapes--><g id="link_app_shapes"><path d="M372.6974,53.038 C364.2694,97.655 345.2074,198.556 336.0124,247.229 " fill="none" id="app-to-shapes" style="stroke:#181818;stroke-width:1.0;"/><polygon fill="#181818" points="335.0484,252.336,340.6503,244.2355,335.977,247.423,332.7895,242.7497,335.0484,252.336" style="stroke:#181818;stroke-width:1.0;"/></g><!--MD5=[f14df6045f0f940bd3abc3c757a2219c]
link app to msgbus--><g id="link_app_msgbus"><path d="M346.2384,53.226 C324.0534,69.328 293.6594,91.388 268.4714,109.67 " fill="none" id="app-to-msgbus" style="stroke:#181818;stroke-width:1.0;"/><polygon fill="#181818" points="264.1544,112.803,273.7874,110.7525,268.2006,109.8655,269.0875,104.2787,264.1544,112.803" style="stroke:#181818;stroke-width:1.0;"/></g><!--MD5=[bf373de95d9a6cfbc99f20cda6974c8f]
@startuml
component [Core] as core
component [SSLplus] as sslplus
component [Shapes] as shapes
component [Message\nBus] as msgbus
component [EGLplus] as eglplus
component [OGLplus] as oglplus
component [OALplus] as oalplus
component [Entity\nComponent\nSystem] as ecs
component [Application] as app

sslplus - -> core
shapes - -> core
msgbus - -> sslplus
msgbus - -> core
eglplus - -> core
oglplus - -> core
oglplus - -> shapes
oalplus - -> core
ecs - -> core
app - -> core
app - -> eglplus
app - -> oglplus
app - -> oalplus
app - -> shapes
app - -> msgbus
@enduml

PlantUML version 1.2022.8beta9(Unknown compile time)
(GPL source distribution)
Java Runtime: Java(TM) SE Runtime Environment
JVM: Java HotSpot(TM) 64-Bit Server VM
Default Encoding: UTF-8
Language: en
Country: US
--></g></svg>