<?xml version="1.0" encoding="us-ascii" standalone="no"?><svg xmlns="http://www.w3.org/2000/svg" xmlns:xlink="http://www.w3.org/1999/xlink" contentStyleType="text/css" height="427px" preserveAspectRatio="none" style="width:834px;height:427px;background:#FFFFFF;" version="1.1" viewBox="0 0 834 427" width="834px" zoomAndPan="magnify"><defs/><g><!--entity core--><g id="elem_core"><rect fill="#F1F1F1" height="46.2969" rx="2.5" ry="2.5" style="stroke:#181818;stroke-width:0.5;" width="74" x="337.0458" y="375"/><rect fill="#F1F1F1" height="10" style="stroke:#181818;stroke-width:0.5;" width="15" x="391.0458" y="380"/><rect fill="#F1F1F1" height="2" style="stroke:#181818;stroke-width:0.5;" width="4" x="389.0458" y="382"/><rect fill="#F1F1F1" height="2" style="stroke:#181818;stroke-width:0.5;" width="4" x="389.0458" y="386"/><text fill="#000000" font-family="sans-serif" font-size="14" lengthAdjust="spacing" textLength="34" x="352.0458" y="407.9951">Core</text></g><!--entity sslplus--><g id="elem_sslplus"><rect fill="#F1F1F1" height="46.2969" rx="2.5" ry="2.5" style="stroke:#181818;stroke-width:0.5;" width="95" x="98.5456" y="252.5"/><rect fill="#F1F1F1" height="10" style="stroke:#181818;stroke-width:0.5;" width="15" x="173.5456" y="257.5"/><rect fill="#F1F1F1" height="2" style="stroke:#181818;stroke-width:0.5;" width="4" x="171.5456" y="259.5"/><rect fill="#F1F1F1" height="2" style="stroke:#181818;stroke-width:0.5;" width="4" x="171.5456" y="263.5"/><text fill="#000000" font-family="sans-serif" font-size="14" lengthAdjust="spacing" textLength="55" x="113.5456" y="285.4951">SSLplus</text></g><!--entity shapes--><g id="elem_shapes"><rect fill="#F1F1F1" height="46.2969" rx="2.5" ry="2.5" style="stroke:#181818;stroke-width:0.5;" width="92" x="229.0458" y="252.5"/><rect fill="#F1F1F1" height="10" style="stroke:#181818;stroke-width:0.5;" width="15" x="301.0458" y="257.5"/><rect fill="#F1F1F1" height="2" style="stroke:#181818;stroke-width:0.5;" width="4" x="299.0458" y="259.5"/><rect fill="#F1F1F1" height="2" style="stroke:#181818;stroke-width:0.5;" width="4" x="299.0458" y="263.5"/><text fill="#000000" font-family="sans-serif" font-size="14" lengthAdjust="spacing" textLength="52" x="244.0458" y="285.4951">Shapes</text></g><!--entity msgbus--><g id="elem_msgbus"><rect fill="#F1F1F1" height="62.5938" rx="2.5" ry="2.5" style="stroke:#181818;stroke-width:0.5;" width="101" x="95.5456" y="113"/><rect fill="#F1F1F1" height="10" style="stroke:#181818;stroke-width:0.5;" width="15" x="176.5456" y="118"/><rect fill="#F1F1F1" height="2" style="stroke:#181818;stroke-width:0.5;" width="4" x="174.5456" y="120"/><rect fill="#F1F1F1" height="2" style="stroke:#181818;stroke-width:0.5;" width="4" x="174.5456" y="124"/><text fill="#000000" font-family="sans-serif" font-size="14" lengthAdjust="spacing" textLength="61" x="110.5456" y="145.9951">Message</text><text fill="#000000" font-family="sans-serif" font-size="14" lengthAdjust="spacing" textLength="25" x="110.5456" y="162.292">Bus</text></g><!--entity eglplus--><g id="elem_eglplus"><rect fill="#F1F1F1" height="46.2969" rx="2.5" ry="2.5" style="stroke:#181818;stroke-width:0.5;" width="97" x="427.5458" y="252.5"/><rect fill="#F1F1F1" height="10" style="stroke:#181818;stroke-width:0.5;" width="15" x="504.5458" y="257.5"/><rect fill="#F1F1F1" height="2" style="stroke:#181818;stroke-width:0.5;" width="4" x="502.5458" y="259.5"/><rect fill="#F1F1F1" height="2" style="stroke:#181818;stroke-width:0.5;" width="4" x="502.5458" y="263.5"/><text fill="#000000" font-family="sans-serif" font-size="14" lengthAdjust="spacing" textLength="57" x="442.5458" y="285.4951">EGLplus</text></g><!--entity oglplus--><g id="elem_oglplus"><rect fill="#F1F1F1" height="46.2969" rx="2.5" ry="2.5" style="stroke:#181818;stroke-width:0.5;" width="99" x="313.5458" y="121.5"/><rect fill="#F1F1F1" height="10" style="stroke:#181818;stroke-width:0.5;" width="15" x="392.5458" y="126.5"/><rect fill="#F1F1F1" height="2" style="stroke:#181818;stroke-width:0.5;" width="4" x="390.5458" y="128.5"/><rect fill="#F1F1F1" height="2" style="stroke:#181818;stroke-width:0.5;" width="4" x="390.5458" y="132.5"/><text fill="#000000" font-family="sans-serif" font-size="14" lengthAdjust="spacing" textLength="59" x="328.5458" y="154.4951">OGLplus</text></g><!--entity oalplus--><g id="elem_oalplus"><rect fill="#F1F1F1" height="46.2969" rx="2.5" ry="2.5" style="stroke:#181818;stroke-width:0.5;" width="98" x="519.0458" y="121.5"/><rect fill="#F1F1F1" height="10" style="stroke:#181818;stroke-width:0.5;" width="15" x="597.0458" y="126.5"/><rect fill="#F1F1F1" height="2" style="stroke:#181818;stroke-width:0.5;" width="4" x="595.0458" y="128.5"/><rect fill="#F1F1F1" height="2" style="stroke:#181818;stroke-width:0.5;" width="4" x="595.0458" y="132.5"/><text fill="#000000" font-family="sans-serif" font-size="14" lengthAdjust="spacing" textLength="58" x="534.0458" y="154.4951">OALplus</text></g><!--entity guiplus--><g id="elem_guiplus"><rect fill="#F1F1F1" height="46.2969" rx="2.5" ry="2.5" style="stroke:#181818;stroke-width:0.5;" width="93" x="652.5458" y="121.5"/><rect fill="#F1F1F1" height="10" style="stroke:#181818;stroke-width:0.5;" width="15" x="725.5458" y="126.5"/><rect fill="#F1F1F1" height="2" style="stroke:#181818;stroke-width:0.5;" width="4" x="723.5458" y="128.5"/><rect fill="#F1F1F1" height="2" style="stroke:#181818;stroke-width:0.5;" width="4" x="723.5458" y="132.5"/><text fill="#000000" font-family="sans-serif" font-size="14" lengthAdjust="spacing" textLength="53" x="667.5458" y="154.4951">GUIplus</text></g><!--entity ecs--><g id="elem_ecs"><rect fill="#F1F1F1" height="78.8906" rx="2.5" ry="2.5" style="stroke:#181818;stroke-width:0.5;" width="126" x="702.0458" y="236"/><rect fill="#F1F1F1" height="10" style="stroke:#181818;stroke-width:0.5;" width="15" x="808.0458" y="241"/><rect fill="#F1F1F1" height="2" style="stroke:#181818;stroke-width:0.5;" width="4" x="806.0458" y="243"/><rect fill="#F1F1F1" height="2" style="stroke:#181818;stroke-width:0.5;" width="4" x="806.0458" y="247"/><text fill="#000000" font-family="sans-serif" font-size="14" lengthAdjust="spacing" textLength="44" x="717.0458" y="268.9951">Entity</text><text fill="#000000" font-family="sans-serif" font-size="14" lengthAdjust="spacing" textLength="86" x="717.0458" y="285.292">Component</text><text fill="#000000" font-family="sans-serif" font-size="14" lengthAdjust="spacing" textLength="54" x="717.0458" y="301.5889">System</text></g><!--entity app--><g id="elem_app"><rect fill="#F1F1F1" height="46.2969" rx="2.5" ry="2.5" style="stroke:#181818;stroke-width:0.5;" width="123" x="301.5458" y="7"/><rect fill="#F1F1F1" height="10" style="stroke:#181818;stroke-width:0.5;" width="15" x="404.5458" y="12"/><rect fill="#F1F1F1" height="2" style="stroke:#181818;stroke-width:0.5;" width="4" x="402.5458" y="14"/><rect fill="#F1F1F1" height="2" style="stroke:#181818;stroke-width:0.5;" width="4" x="402.5458" y="18"/><text fill="#000000" font-family="sans-serif" font-size="14" lengthAdjust="spacing" textLength="83" x="316.5458" y="39.9951">Application</text></g><!--link sslplus to core--><g id="link_sslplus_core"><path d="M182.2328,298.529 C191.5498,304.035 201.6098,309.84 211.0458,315 C251.5758,337.1642 298.8228,360.6853 331.9828,376.8255 " fill="none" id="sslplus-to-core" style="stroke:#181818;stroke-width:1.0;"/><polygon fill="#181818" points="336.7698,379.1522,330.4238,371.6204,332.2728,376.9665,326.9267,378.8155,336.7698,379.1522" style="stroke:#181818;stroke-width:1.0;"/></g><!--link shapes to core--><g id="link_shapes_core"><path d="M293.2038,298.602 C309.9148,318.942 334.7218,349.1361 352.4438,370.7073 " fill="none" id="shapes-to-core" style="stroke:#181818;stroke-width:1.0;"/><polygon fill="#181818" points="355.6668,374.6305,353.0454,365.1369,352.4932,370.7668,346.8634,370.2146,355.6668,374.6305" style="stroke:#181818;stroke-width:1.0;"/></g><!--link msgbus to sslplus--><g id="link_msgbus_sslplus"><path d="M146.0458,176.071 C146.0458,197.638 146.0458,226.281 146.0458,247.104 " fill="none" id="msgbus-to-sslplus" style="stroke:#181818;stroke-width:1.0;"/><polygon fill="#181818" points="146.0458,252.221,150.0458,243.221,146.0458,247.221,142.0458,243.221,146.0458,252.221" style="stroke:#181818;stroke-width:1.0;"/></g><!--link msgbus to core--><g id="link_msgbus_core"><path d="M117.4736,176.22 C87.4939,212.288 48.8557,272.565 81.0456,315 C111.3637,354.968 257.9898,380.768 331.6418,391.4217 " fill="none" id="msgbus-to-core" style="stroke:#181818;stroke-width:1.0;"/><polygon fill="#181818" points="336.8158,392.1625,328.4735,386.9274,331.8663,391.4539,327.3398,394.8467,336.8158,392.1625" style="stroke:#181818;stroke-width:1.0;"/></g><!--link eglplus to core--><g id="link_eglplus_core"><path d="M457.3368,298.602 C440.1198,318.942 414.5608,349.1361 396.3018,370.7073 " fill="none" id="eglplus-to-core" style="stroke:#181818;stroke-width:1.0;"/><polygon fill="#181818" points="392.9808,374.6305,401.849,370.3462,396.2115,370.8144,395.7433,365.177,392.9808,374.6305" style="stroke:#181818;stroke-width:1.0;"/></g><!--link oglplus to core--><g id="link_oglplus_core"><path d="M364.0218,167.819 C366.0358,213.868 370.6468,319.288 372.8418,369.471 " fill="none" id="oglplus-to-core" style="stroke:#181818;stroke-width:1.0;"/><polygon fill="#181818" points="373.0718,374.7311,376.6746,365.5649,372.8533,369.7359,368.6822,365.9145,373.0718,374.7311" style="stroke:#181818;stroke-width:1.0;"/></g><!--link oglplus to shapes--><g id="link_oglplus_shapes"><path d="M347.9178,167.676 C332.7438,189.92 309.3678,224.187 293.2018,247.885 " fill="none" id="oglplus-to-shapes" style="stroke:#181818;stroke-width:1.0;"/><polygon fill="#181818" points="290.2708,252.182,298.648,247.003,293.0893,248.0521,292.0402,242.4934,290.2708,252.182" style="stroke:#181818;stroke-width:1.0;"/></g><!--link oalplus to core--><g id="link_oalplus_core"><path d="M570.7378,167.712 C573.7418,202.619 574.5158,270.881 542.0458,315 C511.8508,356.0266 455.5318,377.5694 416.4708,388.098 " fill="none" id="oalplus-to-core" style="stroke:#181818;stroke-width:1.0;"/><polygon fill="#181818" points="411.3188,389.4503,421.0392,391.0359,416.1552,388.1817,419.0094,383.2977,411.3188,389.4503" style="stroke:#181818;stroke-width:1.0;"/></g><!--link guiplus to core--><g id="link_guiplus_core"><path d="M689.1318,167.6 C672.0878,203.285 633.9908,273.755 582.0458,315 C532.2858,354.5101 461.1178,377.0195 416.2648,388.1153 " fill="none" id="guiplus-to-core" style="stroke:#181818;stroke-width:1.0;"/><polygon fill="#181818" points="411.1988,389.3476,420.8891,391.1077,416.0572,388.1661,418.9988,383.3342,411.1988,389.3476" style="stroke:#181818;stroke-width:1.0;"/></g><!--link ecs to core--><g id="link_ecs_core"><path d="M701.5578,304.946 C692.7268,308.524 683.7118,311.982 675.0458,315 C584.4338,346.5537 475.0898,373.7042 416.3298,387.4354 " fill="none" id="ecs-to-core" style="stroke:#181818;stroke-width:1.0;"/><polygon fill="#181818" points="411.1498,388.6417,420.8226,390.4957,416.0194,387.5074,419.0077,382.7043,411.1498,388.6417" style="stroke:#181818;stroke-width:1.0;"/></g><!--link app to core--><g id="link_app_core"><path d="M301.4688,40.712 C226.7648,53.801 107.168,79.391 78.0456,113 C19.0462,181.09 6,243.676 61.0456,315 C94.0832,357.8079 254.4528,382.6056 331.9508,392.2713 " fill="none" id="app-to-core" style="stroke:#181818;stroke-width:1.0;"/><polygon fill="#181818" points="336.9328,392.8861,328.491,387.8131,331.9705,392.2732,327.5104,395.7528,336.9328,392.8861" style="stroke:#181818;stroke-width:1.0;"/></g><!--link app to eglplus--><g id="link_app_eglplus"><path d="M385.4608,53.211 C400.0178,68.761 418.3868,90.675 430.0458,113 C453.0398,157.03 465.8028,213.991 471.7678,247.166 " fill="none" id="app-to-eglplus" style="stroke:#181818;stroke-width:1.0;"/><polygon fill="#181818" points="472.6668,252.281,475.0485,242.7245,471.8013,247.3565,467.1693,244.1093,472.6668,252.281" style="stroke:#181818;stroke-width:1.0;"/></g><!--link app to oglplus--><g id="link_app_oglplus"><path d="M363.0458,53.226 C363.0458,71.254 363.0458,96.751 363.0458,116.052 " fill="none" id="app-to-oglplus" style="stroke:#181818;stroke-width:1.0;"/><polygon fill="#181818" points="363.0458,121.32,367.0458,112.32,363.0458,116.32,359.0458,112.32,363.0458,121.32" style="stroke:#181818;stroke-width:1.0;"/></g><!--link app to oalplus--><g id="link_app_oalplus"><path d="M403.5468,53.226 C437.9418,72.102 487.2558,99.164 522.9108,118.731 " fill="none" id="app-to-oalplus" style="stroke:#181818;stroke-width:1.0;"/><polygon fill="#181818" points="527.6278,121.32,521.6629,113.4829,523.2447,118.9141,517.8135,120.4959,527.6278,121.32" style="stroke:#181818;stroke-width:1.0;"/></g><!--link app to guiplus--><g id="link_app_guiplus"><path d="M424.7088,46.914 C480.1988,61.879 563.5978,85.977 634.0458,113 C639.1248,114.948 644.3608,117.119 649.5538,119.379 " fill="none" id="app-to-guiplus" style="stroke:#181818;stroke-width:1.0;"/><polygon fill="#181818" points="654.3038,121.476,647.6875,114.1805,649.7302,119.4557,644.455,121.4983,654.3038,121.476" style="stroke:#181818;stroke-width:1.0;"/></g><!--link app to shapes--><g id="link_app_shapes"><path d="M339.2088,53.028 C324.2378,68.334 305.9468,90.042 296.0458,113 C276.9668,157.236 273.9818,214.129 274.1188,247.235 " fill="none" id="app-to-shapes" style="stroke:#181818;stroke-width:1.0;"/><polygon fill="#181818" points="274.1658,252.339,278.0834,243.3028,274.1201,247.3392,270.0837,243.3759,274.1658,252.339" style="stroke:#181818;stroke-width:1.0;"/></g><!--link app to msgbus--><g id="link_app_msgbus"><path d="M320.4318,53.092 C286.2728,70.801 238.0908,95.78 201.0268,114.996 " fill="none" id="app-to-msgbus" style="stroke:#181818;stroke-width:1.0;"/><polygon fill="#181818" points="196.5628,117.31,206.3939,116.7183,201.0016,115.0085,202.7114,109.6162,196.5628,117.31" style="stroke:#181818;stroke-width:1.0;"/></g><!--SRC=[VP113i8W44NtFGKNw1LCQjCq9XeNZQlM1HA292qGXovwUoiC0grnDt_Up6J-PteoMd5bIL_h5xyJ2eIjHS4YwBgp6MTm363yr1b-KiEHkZA55mv01H_K4GzC81xvVjF6yrpipbyJh7_WAi5qXzlRwOl5BBUuKLRQPL1rQ0sgMy3ooN_3ik7Ac54oQgLM3bDZYW838MLvyC7v3ABsXfqEuIKjDuAkOqF_Qs38Q3REeBtaB4l4-knUXBY3rbjDSnqI31fV2TBxUWC0]--></g></svg>