<?xml version="1.0" encoding="us-ascii" standalone="no"?><svg xmlns="http://www.w3.org/2000/svg" xmlns:xlink="http://www.w3.org/1999/xlink" contentStyleType="text/css" height="705px" preserveAspectRatio="none" style="width:814px;height:705px;background:#FFFFFF;" version="1.1" viewBox="0 0 814 705" width="814px" zoomAndPan="magnify"><defs/><g><!--cluster Sub-modules--><g id="cluster_Sub-modules"><path d="M282.5,601 L387.5,601 A3.75,3.75 0 0 1 390,603.5 L397,623.2969 L804.5,623.2969 A2.5,2.5 0 0 1 807,625.7969 L807,695.5 A2.5,2.5 0 0 1 804.5,698 L282.5,698 A2.5,2.5 0 0 1 280,695.5 L280,603.5 A2.5,2.5 0 0 1 282.5,601 " fill="none" style="stroke:#000000;stroke-width:1.5;"/><line style="stroke:#000000;stroke-width:1.5;" x1="280" x2="397" y1="623.2969" y2="623.2969"/><text fill="#000000" font-family="sans-serif" font-size="14" font-weight="bold" lengthAdjust="spacing" textLength="104" x="284" y="615.9951">Sub-modules</text></g><!--cluster EAGine--><g id="cluster_EAGine"><path d="M8.5,6 L65.5,6 A3.75,3.75 0 0 1 68,8.5 L75,28.2969 L643.5,28.2969 A2.5,2.5 0 0 1 646,30.7969 L646,574.5 A2.5,2.5 0 0 1 643.5,577 L8.5,577 A2.5,2.5 0 0 1 6,574.5 L6,8.5 A2.5,2.5 0 0 1 8.5,6 " fill="none" style="stroke:#000000;stroke-width:1.5;"/><line style="stroke:#000000;stroke-width:1.5;" x1="6" x2="75" y1="28.2969" y2="28.2969"/><text fill="#000000" font-family="sans-serif" font-size="14" font-weight="bold" lengthAdjust="spacing" textLength="56" x="10" y="20.9951">EAGine</text></g><!--entity asio--><g id="elem_asio"><rect fill="#1E90FF" height="46.2969" rx="2.5" ry="2.5" style="stroke:#181818;stroke-width:0.5;" width="74" x="717" y="636"/><rect fill="#1E90FF" height="10" style="stroke:#181818;stroke-width:0.5;" width="15" x="771" y="641"/><rect fill="#1E90FF" height="2" style="stroke:#181818;stroke-width:0.5;" width="4" x="769" y="643"/><rect fill="#1E90FF" height="2" style="stroke:#181818;stroke-width:0.5;" width="4" x="769" y="647"/><text fill="#000000" font-family="sans-serif" font-size="14" lengthAdjust="spacing" textLength="34" x="732" y="668.9951">ASIO</text></g><!--entity rapidjson--><g id="elem_rapidjson"><rect fill="#1E90FF" height="46.2969" rx="2.5" ry="2.5" style="stroke:#181818;stroke-width:0.5;" width="115" x="296.5" y="636"/><rect fill="#1E90FF" height="10" style="stroke:#181818;stroke-width:0.5;" width="15" x="391.5" y="641"/><rect fill="#1E90FF" height="2" style="stroke:#181818;stroke-width:0.5;" width="4" x="389.5" y="643"/><rect fill="#1E90FF" height="2" style="stroke:#181818;stroke-width:0.5;" width="4" x="389.5" y="647"/><text fill="#000000" font-family="sans-serif" font-size="14" lengthAdjust="spacing" textLength="75" x="311.5" y="668.9951">RapidJSON</text></g><!--entity rapidyaml--><g id="elem_rapidyaml"><rect fill="#1E90FF" height="46.2969" rx="2.5" ry="2.5" style="stroke:#181818;stroke-width:0.5;" width="120" x="447" y="636"/><rect fill="#1E90FF" height="10" style="stroke:#181818;stroke-width:0.5;" width="15" x="547" y="641"/><rect fill="#1E90FF" height="2" style="stroke:#181818;stroke-width:0.5;" width="4" x="545" y="643"/><rect fill="#1E90FF" height="2" style="stroke:#181818;stroke-width:0.5;" width="4" x="545" y="647"/><text fill="#000000" font-family="sans-serif" font-size="14" lengthAdjust="spacing" textLength="80" x="462" y="668.9951">RapidYAML</text></g><!--entity imgui--><g id="elem_imgui"><rect fill="#1E90FF" height="46.2969" rx="2.5" ry="2.5" style="stroke:#181818;stroke-width:0.5;" width="79" x="602.5" y="636"/><rect fill="#1E90FF" height="10" style="stroke:#181818;stroke-width:0.5;" width="15" x="661.5" y="641"/><rect fill="#1E90FF" height="2" style="stroke:#181818;stroke-width:0.5;" width="4" x="659.5" y="643"/><rect fill="#1E90FF" height="2" style="stroke:#181818;stroke-width:0.5;" width="4" x="659.5" y="647"/><text fill="#000000" font-family="sans-serif" font-size="14" lengthAdjust="spacing" textLength="39" x="617.5" y="668.9951">IMGui</text></g><!--entity core--><g id="elem_core"><rect fill="#F1F1F1" height="46.2969" rx="2.5" ry="2.5" style="stroke:#181818;stroke-width:0.5;" width="74" x="339" y="515"/><rect fill="#F1F1F1" height="10" style="stroke:#181818;stroke-width:0.5;" width="15" x="393" y="520"/><rect fill="#F1F1F1" height="2" style="stroke:#181818;stroke-width:0.5;" width="4" x="391" y="522"/><rect fill="#F1F1F1" height="2" style="stroke:#181818;stroke-width:0.5;" width="4" x="391" y="526"/><text fill="#000000" font-family="sans-serif" font-size="14" lengthAdjust="spacing" textLength="34" x="354" y="547.9951">Core</text></g><!--entity sslplus--><g id="elem_sslplus"><rect fill="#F1F1F1" height="46.2969" rx="2.5" ry="2.5" style="stroke:#181818;stroke-width:0.5;" width="95" x="482.5" y="270"/><rect fill="#F1F1F1" height="10" style="stroke:#181818;stroke-width:0.5;" width="15" x="557.5" y="275"/><rect fill="#F1F1F1" height="2" style="stroke:#181818;stroke-width:0.5;" width="4" x="555.5" y="277"/><rect fill="#F1F1F1" height="2" style="stroke:#181818;stroke-width:0.5;" width="4" x="555.5" y="281"/><text fill="#000000" font-family="sans-serif" font-size="14" lengthAdjust="spacing" textLength="55" x="497.5" y="302.9951">SSLplus</text></g><!--entity shapes--><g id="elem_shapes"><rect fill="#F1F1F1" height="46.2969" rx="2.5" ry="2.5" style="stroke:#181818;stroke-width:0.5;" width="92" x="22" y="392.5"/><rect fill="#F1F1F1" height="10" style="stroke:#181818;stroke-width:0.5;" width="15" x="94" y="397.5"/><rect fill="#F1F1F1" height="2" style="stroke:#181818;stroke-width:0.5;" width="4" x="92" y="399.5"/><rect fill="#F1F1F1" height="2" style="stroke:#181818;stroke-width:0.5;" width="4" x="92" y="403.5"/><text fill="#000000" font-family="sans-serif" font-size="14" lengthAdjust="spacing" textLength="52" x="37" y="425.4951">Shapes</text></g><!--entity msgbus--><g id="elem_msgbus"><rect fill="#F1F1F1" height="62.5938" rx="2.5" ry="2.5" style="stroke:#181818;stroke-width:0.5;" width="101" x="503.5" y="147"/><rect fill="#F1F1F1" height="10" style="stroke:#181818;stroke-width:0.5;" width="15" x="584.5" y="152"/><rect fill="#F1F1F1" height="2" style="stroke:#181818;stroke-width:0.5;" width="4" x="582.5" y="154"/><rect fill="#F1F1F1" height="2" style="stroke:#181818;stroke-width:0.5;" width="4" x="582.5" y="158"/><text fill="#000000" font-family="sans-serif" font-size="14" lengthAdjust="spacing" textLength="61" x="518.5" y="179.9951">Message</text><text fill="#000000" font-family="sans-serif" font-size="14" lengthAdjust="spacing" textLength="25" x="518.5" y="196.292">Bus</text></g><!--entity eglplus--><g id="elem_eglplus"><rect fill="#F1F1F1" height="46.2969" rx="2.5" ry="2.5" style="stroke:#181818;stroke-width:0.5;" width="97" x="149.5" y="392.5"/><rect fill="#F1F1F1" height="10" style="stroke:#181818;stroke-width:0.5;" width="15" x="226.5" y="397.5"/><rect fill="#F1F1F1" height="2" style="stroke:#181818;stroke-width:0.5;" width="4" x="224.5" y="399.5"/><rect fill="#F1F1F1" height="2" style="stroke:#181818;stroke-width:0.5;" width="4" x="224.5" y="403.5"/><text fill="#000000" font-family="sans-serif" font-size="14" lengthAdjust="spacing" textLength="57" x="164.5" y="425.4951">EGLplus</text></g><!--entity oglplus--><g id="elem_oglplus"><rect fill="#F1F1F1" height="46.2969" rx="2.5" ry="2.5" style="stroke:#181818;stroke-width:0.5;" width="99" x="96.5" y="270"/><rect fill="#F1F1F1" height="10" style="stroke:#181818;stroke-width:0.5;" width="15" x="175.5" y="275"/><rect fill="#F1F1F1" height="2" style="stroke:#181818;stroke-width:0.5;" width="4" x="173.5" y="277"/><rect fill="#F1F1F1" height="2" style="stroke:#181818;stroke-width:0.5;" width="4" x="173.5" y="281"/><text fill="#000000" font-family="sans-serif" font-size="14" lengthAdjust="spacing" textLength="59" x="111.5" y="302.9951">OGLplus</text></g><!--entity oalplus--><g id="elem_oalplus"><rect fill="#F1F1F1" height="46.2969" rx="2.5" ry="2.5" style="stroke:#181818;stroke-width:0.5;" width="98" x="231" y="270"/><rect fill="#F1F1F1" height="10" style="stroke:#181818;stroke-width:0.5;" width="15" x="309" y="275"/><rect fill="#F1F1F1" height="2" style="stroke:#181818;stroke-width:0.5;" width="4" x="307" y="277"/><rect fill="#F1F1F1" height="2" style="stroke:#181818;stroke-width:0.5;" width="4" x="307" y="281"/><text fill="#000000" font-family="sans-serif" font-size="14" lengthAdjust="spacing" textLength="58" x="246" y="302.9951">OALplus</text></g><!--entity guiplus--><g id="elem_guiplus"><rect fill="#F1F1F1" height="46.2969" rx="2.5" ry="2.5" style="stroke:#181818;stroke-width:0.5;" width="93" x="272.5" y="155.5"/><rect fill="#F1F1F1" height="10" style="stroke:#181818;stroke-width:0.5;" width="15" x="345.5" y="160.5"/><rect fill="#F1F1F1" height="2" style="stroke:#181818;stroke-width:0.5;" width="4" x="343.5" y="162.5"/><rect fill="#F1F1F1" height="2" style="stroke:#181818;stroke-width:0.5;" width="4" x="343.5" y="166.5"/><text fill="#000000" font-family="sans-serif" font-size="14" lengthAdjust="spacing" textLength="53" x="287.5" y="188.4951">GUIplus</text></g><!--entity ecs--><g id="elem_ecs"><rect fill="#F1F1F1" height="78.8906" rx="2.5" ry="2.5" style="stroke:#181818;stroke-width:0.5;" width="126" x="467" y="376"/><rect fill="#F1F1F1" height="10" style="stroke:#181818;stroke-width:0.5;" width="15" x="573" y="381"/><rect fill="#F1F1F1" height="2" style="stroke:#181818;stroke-width:0.5;" width="4" x="571" y="383"/><rect fill="#F1F1F1" height="2" style="stroke:#181818;stroke-width:0.5;" width="4" x="571" y="387"/><text fill="#000000" font-family="sans-serif" font-size="14" lengthAdjust="spacing" textLength="44" x="482" y="408.9951">Entity</text><text fill="#000000" font-family="sans-serif" font-size="14" lengthAdjust="spacing" textLength="86" x="482" y="425.292">Component</text><text fill="#000000" font-family="sans-serif" font-size="14" lengthAdjust="spacing" textLength="54" x="482" y="441.5889">System</text></g><!--entity app--><g id="elem_app"><rect fill="#F1F1F1" height="46.2969" rx="2.5" ry="2.5" style="stroke:#181818;stroke-width:0.5;" width="123" x="174.5" y="41"/><rect fill="#F1F1F1" height="10" style="stroke:#181818;stroke-width:0.5;" width="15" x="277.5" y="46"/><rect fill="#F1F1F1" height="2" style="stroke:#181818;stroke-width:0.5;" width="4" x="275.5" y="48"/><rect fill="#F1F1F1" height="2" style="stroke:#181818;stroke-width:0.5;" width="4" x="275.5" y="52"/><text fill="#000000" font-family="sans-serif" font-size="14" lengthAdjust="spacing" textLength="83" x="189.5" y="73.9951">Application</text></g><!--link core to rapidjson--><g id="link_core_rapidjson"><path d="M371.914,561.104 C367.987,582.344 363.175,608.3755 359.23,629.7105 " fill="none" id="core-to-rapidjson" style="stroke:#181818;stroke-width:1.0;"/><polygon fill="#181818" points="358.139,635.6105,363.7088,627.4878,359.0481,630.6938,355.8421,626.0332,358.139,635.6105" style="stroke:#181818;stroke-width:1.0;"/></g><!--link core to rapidyaml--><g id="link_core_rapidyaml"><path d="M400.333,561.104 C423.715,582.344 454.4248,610.2412 477.9118,631.5762 " fill="none" id="core-to-rapidyaml" style="stroke:#181818;stroke-width:1.0;"/><polygon fill="#181818" points="482.353,635.6105,478.3807,626.5982,478.652,632.2486,473.0016,632.5199,482.353,635.6105" style="stroke:#181818;stroke-width:1.0;"/></g><!--link core to asio--><g id="link_core_asio"><path d="M413.214,541.994 C487.378,548.478 650.629,565.491 699,593 C716.733,603.085 728.0034,616.1917 737.6924,630.7354 " fill="none" id="core-to-asio" style="stroke:#181818;stroke-width:1.0;"/><polygon fill="#181818" points="741.019,635.7288,739.358,626.021,738.2468,631.5677,732.7002,630.4565,741.019,635.7288" style="stroke:#181818;stroke-width:1.0;"/></g><!--link msgbus to asio--><g id="link_msgbus_asio"><path d="M604.808,195.468 C640.066,209.335 684.877,233.092 709,270 C786.539,388.637 768.365,566.2389 758.747,629.632 " fill="none" id="msgbus-to-asio" style="stroke:#181818;stroke-width:1.0;"/><polygon fill="#181818" points="757.847,635.5641,763.1518,627.2659,758.597,630.6207,755.2423,626.0659,757.847,635.5641" style="stroke:#181818;stroke-width:1.0;"/></g><!--link guiplus to imgui--><g id="link_guiplus_imgui"><path d="M365.722,188.63 C436.365,203.412 565.291,234.532 595,270 C686.715,379.495 660.5281,565.3679 647.9131,630.0743 " fill="none" id="guiplus-to-imgui" style="stroke:#181818;stroke-width:1.0;"/><polygon fill="#181818" points="646.765,635.9634,652.4133,627.8951,647.7218,631.0558,644.5611,626.3643,646.765,635.9634" style="stroke:#181818;stroke-width:1.0;"/></g><!--link sslplus to core--><g id="link_sslplus_core"><path d="M503.835,316.041 C486.641,331.516 464.535,353.412 449,376 C417.695,421.516 396.2764,476.9482 385.1584,509.2182 " fill="none" id="sslplus-to-core" style="stroke:#181818;stroke-width:1.0;"/><polygon fill="#181818" points="383.204,514.891,389.9175,507.6848,384.8327,510.1637,382.3538,505.0789,383.204,514.891" style="stroke:#181818;stroke-width:1.0;"/></g><!--link shapes to core--><g id="link_shapes_core"><path d="M101.793,438.696 C111.333,444.442 121.877,450.322 132,455 C202.587,487.62 284.1572,512.1866 332.8762,525.5976 " fill="none" id="shapes-to-core" style="stroke:#181818;stroke-width:1.0;"/><polygon fill="#181818" points="338.661,527.19,331.0454,520.9448,333.8403,525.863,328.9222,528.6579,338.661,527.19" style="stroke:#181818;stroke-width:1.0;"/></g><!--link msgbus to sslplus--><g id="link_msgbus_sslplus"><path d="M547.442,210.241 C543.417,229.108 539.6077,246.963 535.9757,263.99 " fill="none" id="msgbus-to-sslplus" style="stroke:#181818;stroke-width:1.0;"/><polygon fill="#181818" points="534.724,269.858,540.5135,261.8905,535.7671,264.968,532.6895,260.2216,534.724,269.858" style="stroke:#181818;stroke-width:1.0;"/></g><!--link msgbus to core--><g id="link_msgbus_core"><path d="M574.204,210.34 C607.112,264.845 663.505,379.556 610,455 C565.052,518.379 473.1474,532.7931 419.3144,535.9921 " fill="none" id="msgbus-to-core" style="stroke:#181818;stroke-width:1.0;"/><polygon fill="#181818" points="413.325,536.348,422.5464,539.8071,418.3162,536.0514,422.0719,531.8212,413.325,536.348" style="stroke:#181818;stroke-width:1.0;"/></g><!--link eglplus to core--><g id="link_eglplus_core"><path d="M230.648,438.602 C262.665,460.276 306.2404,489.7755 338.2894,511.4715 " fill="none" id="eglplus-to-core" style="stroke:#181818;stroke-width:1.0;"/><polygon fill="#181818" points="343.258,514.835,338.0475,506.4773,339.1175,512.0321,333.5628,513.1021,343.258,514.835" style="stroke:#181818;stroke-width:1.0;"/></g><!--link oglplus to core--><g id="link_oglplus_core"><path d="M187.407,316.079 C211.912,330.662 242.302,351.562 264,376 C290.401,405.736 283.625,422.128 306,455 C320.64,476.508 335.9547,494.4212 350.6097,510.3362 " fill="none" id="oglplus-to-core" style="stroke:#181818;stroke-width:1.0;"/><polygon fill="#181818" points="354.674,514.75,351.52,505.4198,351.2871,511.0719,345.635,510.8389,354.674,514.75" style="stroke:#181818;stroke-width:1.0;"/></g><!--link oglplus to shapes--><g id="link_oglplus_shapes"><path d="M131.694,316.102 C117.708,337.708 99.7855,365.3962 85.7404,387.0932 " fill="none" id="oglplus-to-shapes" style="stroke:#181818;stroke-width:1.0;"/><polygon fill="#181818" points="82.4799,392.13,90.7285,386.7484,85.197,387.9327,84.0127,382.4012,82.4799,392.13" style="stroke:#181818;stroke-width:1.0;"/></g><!--link oalplus to core--><g id="link_oalplus_core"><path d="M288.859,316.425 C307.194,362.835 346.8994,463.3397 365.0964,509.3997 " fill="none" id="oalplus-to-core" style="stroke:#181818;stroke-width:1.0;"/><polygon fill="#181818" points="367.301,514.98,367.7143,505.1398,365.4638,510.3298,360.2739,508.0793,367.301,514.98" style="stroke:#181818;stroke-width:1.0;"/></g><!--link guiplus to core--><g id="link_guiplus_core"><path d="M326.776,201.535 C332.89,219.689 341.157,246.222 346,270 C364.292,359.815 371.8288,463.0702 374.5068,509.0002 " fill="none" id="guiplus-to-core" style="stroke:#181818;stroke-width:1.0;"/><polygon fill="#181818" points="374.856,514.99,378.3254,505.7724,374.565,509.9985,370.3389,506.2381,374.856,514.99" style="stroke:#181818;stroke-width:1.0;"/></g><!--link ecs to core--><g id="link_ecs_core"><path d="M480.426,455.29 C455.278,474.967 430.3674,494.4596 409.1034,511.0976 " fill="none" id="ecs-to-core" style="stroke:#181818;stroke-width:1.0;"/><polygon fill="#181818" points="404.378,514.795,413.931,512.3992,408.3158,511.7138,409.0012,506.0987,404.378,514.795" style="stroke:#181818;stroke-width:1.0;"/></g><!--link app to core--><g id="link_app_core"><path d="M297.553,82.697 C329.021,95.212 364.503,115.501 383,147 C419.821,209.702 390.7996,435.7109 380.2146,508.8319 " fill="none" id="app-to-core" style="stroke:#181818;stroke-width:1.0;"/><polygon fill="#181818" points="379.355,514.77,384.6031,506.4359,380.0713,509.8216,376.6857,505.2898,379.355,514.77" style="stroke:#181818;stroke-width:1.0;"/></g><!--link app to eglplus--><g id="link_app_eglplus"><path d="M210.784,87.112 C173.471,121.707 105.15,192.716 79,270 C72.4473,289.366 70.2977,297.5 79,316 C94.754,349.49 122.993,372.3525 150.39,389.2115 " fill="none" id="app-to-eglplus" style="stroke:#181818;stroke-width:1.0;"/><polygon fill="#181818" points="155.5,392.356,149.9313,384.2326,151.2417,389.7356,145.7387,391.0459,155.5,392.356" style="stroke:#181818;stroke-width:1.0;"/></g><!--link app to oglplus--><g id="link_app_oglplus"><path d="M227.207,87.179 C210.001,130.576 174.2755,220.6844 157.0405,264.1534 " fill="none" id="app-to-oglplus" style="stroke:#181818;stroke-width:1.0;"/><polygon fill="#181818" points="154.829,269.731,161.8646,262.8389,156.6719,265.083,154.4278,259.8903,154.829,269.731" style="stroke:#181818;stroke-width:1.0;"/></g><!--link app to oalplus--><g id="link_app_oalplus"><path d="M237.767,87.305 C240.299,115.945 245.71,167.071 255,210 C259.47,230.656 264.7522,247.9418 270.2812,264.3038 " fill="none" id="app-to-oalplus" style="stroke:#181818;stroke-width:1.0;"/><polygon fill="#181818" points="272.202,269.988,273.1103,260.1811,270.6013,265.2511,265.5313,262.7422,272.202,269.988" style="stroke:#181818;stroke-width:1.0;"/></g><!--link app to guiplus--><g id="link_app_guiplus"><path d="M252.398,87.226 C266.949,106.949 284.5329,130.7828 299.0739,150.4918 " fill="none" id="app-to-guiplus" style="stroke:#181818;stroke-width:1.0;"/><polygon fill="#181818" points="302.636,155.32,300.5116,145.703,299.6675,151.2965,294.074,150.4525,302.636,155.32" style="stroke:#181818;stroke-width:1.0;"/></g><!--link app to shapes--><g id="link_app_shapes"><path d="M180.914,87.16 C153.602,100.713 122.222,120.575 102,147 C45.0996,221.356 55.4394,336.8701 63.0861,386.4431 " fill="none" id="app-to-shapes" style="stroke:#181818;stroke-width:1.0;"/><polygon fill="#181818" points="64.0008,392.373,66.582,382.8684,63.2386,387.4314,58.6755,384.088,64.0008,392.373" style="stroke:#181818;stroke-width:1.0;"/></g><!--link app to msgbus--><g id="link_app_msgbus"><path d="M297.691,86.825 C357.656,108.039 441.9676,137.8659 497.8156,157.6239 " fill="none" id="app-to-msgbus" style="stroke:#181818;stroke-width:1.0;"/><polygon fill="#181818" points="503.472,159.625,496.3214,152.8523,498.7583,157.9574,493.6532,160.3942,503.472,159.625" style="stroke:#181818;stroke-width:1.0;"/></g><!--link guiplus to oglplus--><!--link oglplus to eglplus--><!--link sslplus to ecs--><!--SRC=[ZLB1ReGW4Btp5IGz-mjDtAqnDcjDQdferZsmI5nQ1I9oC4t_lOeWx1QtDHvuZpV3pBmH27-YXi1IdQEErweb4du1Q3xCEy4POGCyncLMd22IqqyvV7ZYTKFwNQj8IFoA1AsVo-95H_Gp-f2S_IliFSuFBcn4NVjNM9QdYkeGsZMANic_0H2cnIHEAIFXxlQy9pe3dWuXGLaUHAkaraZPpkUWx884CIfz38bo8kLKKCLs9c4dctCuNvAwPqcp-MpXoVWTMUp9qAOiVSjMsJJFBLd21ZgC5TjRgcBbA0VIBTNYO50iH4in6YXdopO9CNiqZnr6qQFRbHjgtWD7pJi8bgavR4hLX5u408nJcjBEBgOuxEMmhdgKbfYnEuBV8uphPhfEunUtfCKUcARm6rY_BUQt65rZQvN5fXGBpPAvIeuNMjU4dRpKQoVUdIrZdQL_X-KF]--></g></svg>