<?xml version="1.0" encoding="UTF-8" standalone="no"?>
<svg xmlns="http://www.w3.org/2000/svg" xmlns:xlink="http://www.w3.org/1999/xlink" contentScriptType="application/ecmascript" contentStyleType="text/css" height="435px" preserveAspectRatio="none" style="width:833px;height:435px;background:#FFFFFF;" version="1.1" viewBox="0 0 833 435" width="833px" zoomAndPan="magnify"><defs><filter height="300%" id="f1jxoar4yegmsm" width="300%" x="-1" y="-1"><feGaussianBlur result="blurOut" stdDeviation="2.0"/><feColorMatrix in="blurOut" result="blurOut2" type="matrix" values="0 0 0 0 0 0 0 0 0 0 0 0 0 0 0 0 0 0 .4 0"/><feOffset dx="4.0" dy="4.0" in="blurOut2" result="blurOut3"/><feBlend in="SourceGraphic" in2="blurOut3" mode="normal"/></filter></defs><g><!--MD5=[0d482ad21d5c7c11aa976e45da5ecfe6]
entity core--><rect fill="#FEFECE" filter="url(#f1jxoar4yegmsm)" height="46.2969" style="stroke:#A80036;stroke-width:1.5;" width="74" x="380.5" y="375"/><rect fill="#FEFECE" height="10" style="stroke:#A80036;stroke-width:1.5;" width="15" x="434.5" y="380"/><rect fill="#FEFECE" height="2" style="stroke:#A80036;stroke-width:1.5;" width="4" x="432.5" y="382"/><rect fill="#FEFECE" height="2" style="stroke:#A80036;stroke-width:1.5;" width="4" x="432.5" y="386"/><text fill="#000000" font-family="sans-serif" font-size="14" lengthAdjust="spacing" textLength="34" x="395.5" y="407.9951">Core</text><!--MD5=[2ac6718fdcc08e369529095954fd530a]
entity sslplus--><rect fill="#FEFECE" filter="url(#f1jxoar4yegmsm)" height="46.2969" style="stroke:#A80036;stroke-width:1.5;" width="95" x="60" y="252.5"/><rect fill="#FEFECE" height="10" style="stroke:#A80036;stroke-width:1.5;" width="15" x="135" y="257.5"/><rect fill="#FEFECE" height="2" style="stroke:#A80036;stroke-width:1.5;" width="4" x="133" y="259.5"/><rect fill="#FEFECE" height="2" style="stroke:#A80036;stroke-width:1.5;" width="4" x="133" y="263.5"/><text fill="#000000" font-family="sans-serif" font-size="14" lengthAdjust="spacing" textLength="55" x="75" y="285.4951">SSLplus</text><!--MD5=[cdc5d2131b72f1aaf3f0e272e254324b]
entity shapes--><rect fill="#FEFECE" filter="url(#f1jxoar4yegmsm)" height="46.2969" style="stroke:#A80036;stroke-width:1.5;" width="92" x="322.5" y="252.5"/><rect fill="#FEFECE" height="10" style="stroke:#A80036;stroke-width:1.5;" width="15" x="394.5" y="257.5"/><rect fill="#FEFECE" height="2" style="stroke:#A80036;stroke-width:1.5;" width="4" x="392.5" y="259.5"/><rect fill="#FEFECE" height="2" style="stroke:#A80036;stroke-width:1.5;" width="4" x="392.5" y="263.5"/><text fill="#000000" font-family="sans-serif" font-size="14" lengthAdjust="spacing" textLength="52" x="337.5" y="285.4951">Shapes</text><!--MD5=[4c971703817ce75988139e5bccad6c2f]
entity msgbus--><rect fill="#FEFECE" filter="url(#f1jxoar4yegmsm)" height="62.5938" style="stroke:#A80036;stroke-width:1.5;" width="101" x="7" y="113"/><rect fill="#FEFECE" height="10" style="stroke:#A80036;stroke-width:1.5;" width="15" x="88" y="118"/><rect fill="#FEFECE" height="2" style="stroke:#A80036;stroke-width:1.5;" width="4" x="86" y="120"/><rect fill="#FEFECE" height="2" style="stroke:#A80036;stroke-width:1.5;" width="4" x="86" y="124"/><text fill="#000000" font-family="sans-serif" font-size="14" lengthAdjust="spacing" textLength="61" x="22" y="145.9951">Message</text><text fill="#000000" font-family="sans-serif" font-size="14" lengthAdjust="spacing" textLength="25" x="22" y="162.292">Bus</text><!--MD5=[f21c4a83c42dbfe58de9635d1ee07c7c]
entity eglplus--><rect fill="#FEFECE" filter="url(#f1jxoar4yegmsm)" height="46.2969" style="stroke:#A80036;stroke-width:1.5;" width="97" x="190" y="252.5"/><rect fill="#FEFECE" height="10" style="stroke:#A80036;stroke-width:1.5;" width="15" x="267" y="257.5"/><rect fill="#FEFECE" height="2" style="stroke:#A80036;stroke-width:1.5;" width="4" x="265" y="259.5"/><rect fill="#FEFECE" height="2" style="stroke:#A80036;stroke-width:1.5;" width="4" x="265" y="263.5"/><text fill="#000000" font-family="sans-serif" font-size="14" lengthAdjust="spacing" textLength="57" x="205" y="285.4951">EGLplus</text><!--MD5=[e598028ba2bdabf3904d76427277fd15]
entity oglplus--><rect fill="#FEFECE" filter="url(#f1jxoar4yegmsm)" height="46.2969" style="stroke:#A80036;stroke-width:1.5;" width="99" x="355" y="121.5"/><rect fill="#FEFECE" height="10" style="stroke:#A80036;stroke-width:1.5;" width="15" x="434" y="126.5"/><rect fill="#FEFECE" height="2" style="stroke:#A80036;stroke-width:1.5;" width="4" x="432" y="128.5"/><rect fill="#FEFECE" height="2" style="stroke:#A80036;stroke-width:1.5;" width="4" x="432" y="132.5"/><text fill="#000000" font-family="sans-serif" font-size="14" lengthAdjust="spacing" textLength="59" x="370" y="154.4951">OGLplus</text><!--MD5=[0056fbd0491e57ed7fbb94ea9c987324]
entity oalplus--><rect fill="#FEFECE" filter="url(#f1jxoar4yegmsm)" height="46.2969" style="stroke:#A80036;stroke-width:1.5;" width="98" x="489.5" y="121.5"/><rect fill="#FEFECE" height="10" style="stroke:#A80036;stroke-width:1.5;" width="15" x="567.5" y="126.5"/><rect fill="#FEFECE" height="2" style="stroke:#A80036;stroke-width:1.5;" width="4" x="565.5" y="128.5"/><rect fill="#FEFECE" height="2" style="stroke:#A80036;stroke-width:1.5;" width="4" x="565.5" y="132.5"/><text fill="#000000" font-family="sans-serif" font-size="14" lengthAdjust="spacing" textLength="58" x="504.5" y="154.4951">OALplus</text><!--MD5=[f58456ccec15107b0d3279611d67a5c5]
entity ecs--><rect fill="#FEFECE" filter="url(#f1jxoar4yegmsm)" height="78.8906" style="stroke:#A80036;stroke-width:1.5;" width="126" x="693.5" y="236"/><rect fill="#FEFECE" height="10" style="stroke:#A80036;stroke-width:1.5;" width="15" x="799.5" y="241"/><rect fill="#FEFECE" height="2" style="stroke:#A80036;stroke-width:1.5;" width="4" x="797.5" y="243"/><rect fill="#FEFECE" height="2" style="stroke:#A80036;stroke-width:1.5;" width="4" x="797.5" y="247"/><text fill="#000000" font-family="sans-serif" font-size="14" lengthAdjust="spacing" textLength="44" x="708.5" y="268.9951">Entity</text><text fill="#000000" font-family="sans-serif" font-size="14" lengthAdjust="spacing" textLength="86" x="708.5" y="285.292">Component</text><text fill="#000000" font-family="sans-serif" font-size="14" lengthAdjust="spacing" textLength="54" x="708.5" y="301.5889">System</text><!--MD5=[4541fb81c80c07473fe4b07432ef0971]
entity app--><rect fill="#FEFECE" filter="url(#f1jxoar4yegmsm)" height="46.2969" style="stroke:#A80036;stroke-width:1.5;" width="123" x="343" y="7"/><rect fill="#FEFECE" height="10" style="stroke:#A80036;stroke-width:1.5;" width="15" x="446" y="12"/><rect fill="#FEFECE" height="2" style="stroke:#A80036;stroke-width:1.5;" width="4" x="444" y="14"/><rect fill="#FEFECE" height="2" style="stroke:#A80036;stroke-width:1.5;" width="4" x="444" y="18"/><text fill="#000000" font-family="sans-serif" font-size="14" lengthAdjust="spacing" textLength="83" x="358" y="39.9951">Application</text><!--MD5=[4870c9f75fef21599445ff782e3820a2]
link sslplus to core--><path d="M141.851,298.679 C151.541,304.426 162.242,310.31 172.5,315 C241.318,346.4666 325.835,372.0716 375.471,385.8751 " fill="none" id="sslplus-to-core" style="stroke:#A80036;stroke-width:1.0;"/><polygon fill="#A80036" points="380.46,387.2552,372.8537,380.9987,375.6413,385.921,370.719,388.7086,380.46,387.2552" style="stroke:#A80036;stroke-width:1.0;"/><!--MD5=[221af3e5be4e8aaa06c68f59a403c35c]
link shapes to core--><path d="M377.487,298.602 C385.656,318.689 397.732,348.3859 406.479,369.8978 " fill="none" id="shapes-to-core" style="stroke:#A80036;stroke-width:1.0;"/><polygon fill="#A80036" points="408.404,374.6305,408.719,364.7867,406.5205,369.9988,401.3083,367.8003,408.404,374.6305" style="stroke:#A80036;stroke-width:1.0;"/><!--MD5=[41a95efdae3d2f898cb50b548db62b97]
link msgbus to sslplus--><path d="M69.3493,176.071 C77.7441,197.73 88.9045,226.524 96.9839,247.369 " fill="none" id="msgbus-to-sslplus" style="stroke:#A80036;stroke-width:1.0;"/><polygon fill="#A80036" points="98.8647,252.221,99.3414,242.3837,97.0576,247.559,91.8822,245.2751,98.8647,252.221" style="stroke:#A80036;stroke-width:1.0;"/><!--MD5=[db1c66775a76328d059c1907c9245561]
link msgbus to core--><path d="M43.1606,176.136 C28.1575,213.24 10.8234,275.648 42.5,315 C83.9329,366.4718 286.184,387.4041 375.251,394.2252 " fill="none" id="msgbus-to-core" style="stroke:#A80036;stroke-width:1.0;"/><polygon fill="#A80036" points="380.437,394.6162,371.763,389.9512,375.4511,394.2405,371.1619,397.9286,380.437,394.6162" style="stroke:#A80036;stroke-width:1.0;"/><!--MD5=[bab9bb75922a153f46cb8db8a2df3d9a]
link eglplus to core--><path d="M271.331,298.602 C302.144,319.344 348.181,350.3353 380.33,371.978 " fill="none" id="eglplus-to-core" style="stroke:#A80036;stroke-width:1.0;"/><polygon fill="#A80036" points="384.574,374.8349,379.3428,366.4902,380.4266,372.0422,374.8745,373.1261,384.574,374.8349" style="stroke:#A80036;stroke-width:1.0;"/><!--MD5=[def59b5e0b241f19f9b568d127e5d207]
link oglplus to core--><path d="M413.123,167.778 C419.632,185.85 428.018,212.15 431.5,236 C438.329,282.776 430.105,337.7198 423.684,369.8185 " fill="none" id="oglplus-to-core" style="stroke:#A80036;stroke-width:1.0;"/><polygon fill="#A80036" points="422.671,374.7692,428.3935,366.7534,423.673,369.8706,420.5557,365.1502,422.671,374.7692" style="stroke:#A80036;stroke-width:1.0;"/><!--MD5=[9af95b53a5b37e5a9811acf7a635a697]
link oglplus to shapes--><path d="M398.311,167.676 C392.155,189.735 382.699,223.619 376.093,247.293 " fill="none" id="oglplus-to-shapes" style="stroke:#A80036;stroke-width:1.0;"/><polygon fill="#A80036" points="374.728,252.182,381.0005,244.5889,376.0723,247.3661,373.2951,242.4379,374.728,252.182" style="stroke:#A80036;stroke-width:1.0;"/><!--MD5=[b18fa7a7262397a62e3e1a448c0c9cf3]
link oalplus to core--><path d="M528.533,167.565 C513.797,200.03 485.169,262.5 459.5,315 C450.459,333.4915 439.894,354.113 431.623,370.0504 " fill="none" id="oalplus-to-core" style="stroke:#A80036;stroke-width:1.0;"/><polygon fill="#A80036" points="429.133,374.8385,436.8331,368.6977,431.4391,370.4021,429.7348,365.008,429.133,374.8385" style="stroke:#A80036;stroke-width:1.0;"/><!--MD5=[f8788864f7992086e4cddd57fe502401]
link ecs to core--><path d="M693.349,304.324 C684.385,308.036 675.244,311.697 666.5,315 C594.671,342.1332 509.375,369.1163 459.557,384.3634 " fill="none" id="ecs-to-core" style="stroke:#A80036;stroke-width:1.0;"/><polygon fill="#A80036" points="454.551,385.8924,464.3271,387.0873,459.3327,384.431,461.9889,379.4366,454.551,385.8924" style="stroke:#A80036;stroke-width:1.0;"/><!--MD5=[3ca5629ec7114117f93847c258b7b725]
link app to core--><path d="M466.161,38.113 C512.803,47.088 573.874,67.343 604.5,113 C668.342,208.175 527.82,322.3207 456.172,371.9328 " fill="none" id="app-to-core" style="stroke:#A80036;stroke-width:1.0;"/><polygon fill="#A80036" points="451.974,374.8202,461.6563,373.0166,456.0939,371.9871,457.1234,366.4247,451.974,374.8202" style="stroke:#A80036;stroke-width:1.0;"/><!--MD5=[7756efb99bd02fdfc0fe78f87f35d18f]
link app to eglplus--><path d="M379.133,53.002 C362.074,68.63 339.811,90.717 323.5,113 C291.393,156.863 264.144,214.469 249.663,247.697 " fill="none" id="app-to-eglplus" style="stroke:#A80036;stroke-width:1.0;"/><polygon fill="#A80036" points="247.62,252.418,254.8654,245.7469,249.6058,247.8292,247.5234,242.5696,247.62,252.418" style="stroke:#A80036;stroke-width:1.0;"/><!--MD5=[da52b3a056b35e4285aa15ec90cc952b]
link app to oglplus--><path d="M404.5,53.226 C404.5,71.254 404.5,96.751 404.5,116.052 " fill="none" id="app-to-oglplus" style="stroke:#A80036;stroke-width:1.0;"/><polygon fill="#A80036" points="404.5,121.32,408.5,112.32,404.5,116.32,400.5,112.32,404.5,121.32" style="stroke:#A80036;stroke-width:1.0;"/><!--MD5=[cb16e8e0954218cf86a1793a98761615]
link app to oalplus--><path d="M430.974,53.226 C453.181,71.871 484.903,98.503 508.137,118.009 " fill="none" id="app-to-oalplus" style="stroke:#A80036;stroke-width:1.0;"/><polygon fill="#A80036" points="512.081,121.32,507.762,112.4686,508.2523,118.1042,502.6168,118.5945,512.081,121.32" style="stroke:#A80036;stroke-width:1.0;"/><!--MD5=[95f4d793c3f86e3dc2c56c442473564f]
link app to shapes--><path d="M378.991,53.31 C363.743,68.417 345.774,89.797 337.5,113 C321.186,158.751 340.247,215.021 354.87,247.622 " fill="none" id="app-to-shapes" style="stroke:#A80036;stroke-width:1.0;"/><polygon fill="#A80036" points="356.991,252.256,356.8847,242.4077,354.9111,247.7091,349.6097,245.7355,356.991,252.256" style="stroke:#A80036;stroke-width:1.0;"/><!--MD5=[ecd3d5fab63a706b9265f9f69cf75d9d]
@startuml
component [Core] as core
component [SSLplus] as sslplus
component [Shapes] as shapes
component [Message\nBus] as msgbus
component [EGLplus] as eglplus
component [OGLplus] as oglplus
component [OALplus] as oalplus
component [Entity\nComponent\nSystem] as ecs
component [Application] as app

sslplus - -> core
shapes - -> core
msgbus - -> sslplus
msgbus - -> core
eglplus - -> core
oglplus - -> core
oglplus - -> shapes
oalplus - -> core
ecs - -> core
app - -> core
app - -> eglplus
app - -> oglplus
app - -> oalplus
app - -> shapes
@enduml

PlantUML version 1.2021.9beta2(Unknown compile time)
(GPL source distribution)
Java Runtime: Java(TM) SE Runtime Environment
JVM: Java HotSpot(TM) 64-Bit Server VM
Default Encoding: UTF-8
Language: en
Country: US
--></g></svg>