<svg xmlns="http://www.w3.org/2000/svg" xmlns:xlink="http://www.w3.org/1999/xlink" contentStyleType="text/css" height="721px" preserveAspectRatio="none" style="width:899px;height:721px;background:#FFFFFF;" version="1.1" viewBox="0 0 899 721" width="899px" zoomAndPan="magnify"><defs/><g><!--cluster Sub-modules--><g id="cluster_Sub-modules"><path d="M328.5,601.38 L432.2031,601.38 A3.75,3.75 0 0 1 434.7031,603.88 L441.7031,623.6769 L889.5,623.6769 A2.5,2.5 0 0 1 892,626.1769 L892,712.47 A2.5,2.5 0 0 1 889.5,714.97 L328.5,714.97 A2.5,2.5 0 0 1 326,712.47 L326,603.88 A2.5,2.5 0 0 1 328.5,601.38 " fill="none" style="stroke:#000000;stroke-width:1.5;"/><line style="stroke:#000000;stroke-width:1.5;" x1="326" x2="441.7031" y1="623.6769" y2="623.6769"/><text fill="#000000" font-family="sans-serif" font-size="14" font-weight="bold" lengthAdjust="spacing" textLength="102.7031" x="330" y="616.3751">Sub-modules</text></g><!--cluster EAGine--><g id="cluster_EAGine"><path d="M8.5,6 L65.6504,6 A3.75,3.75 0 0 1 68.1504,8.5 L75.1504,28.2969 L637.5,28.2969 A2.5,2.5 0 0 1 640,30.7969 L640,574.88 A2.5,2.5 0 0 1 637.5,577.38 L8.5,577.38 A2.5,2.5 0 0 1 6,574.88 L6,8.5 A2.5,2.5 0 0 1 8.5,6 " fill="none" style="stroke:#000000;stroke-width:1.5;"/><line style="stroke:#000000;stroke-width:1.5;" x1="6" x2="75.1504" y1="28.2969" y2="28.2969"/><text fill="#000000" font-family="sans-serif" font-size="14" font-weight="bold" lengthAdjust="spacing" textLength="56.1504" x="10" y="20.9951">EAGine</text></g><!--entity asio--><g id="elem_asio"><rect fill="#1E90FF" height="46.2969" rx="2.5" ry="2.5" style="stroke:#181818;stroke-width:0.5;" width="73.6123" x="687.19" y="644.52"/><rect fill="#1E90FF" height="10" style="stroke:#181818;stroke-width:0.5;" width="15" x="740.8023" y="649.52"/><rect fill="#1E90FF" height="2" style="stroke:#181818;stroke-width:0.5;" width="4" x="738.8023" y="651.52"/><rect fill="#1E90FF" height="2" style="stroke:#181818;stroke-width:0.5;" width="4" x="738.8023" y="655.52"/><text fill="#000000" font-family="sans-serif" font-size="14" lengthAdjust="spacing" textLength="33.6123" x="702.19" y="677.5151">ASIO</text></g><!--entity paho--><g id="elem_paho"><rect fill="#1E90FF" height="62.5938" rx="2.5" ry="2.5" style="stroke:#181818;stroke-width:0.5;" width="80.2021" x="795.9" y="636.38"/><rect fill="#1E90FF" height="10" style="stroke:#181818;stroke-width:0.5;" width="15" x="856.1021" y="641.38"/><rect fill="#1E90FF" height="2" style="stroke:#181818;stroke-width:0.5;" width="4" x="854.1021" y="643.38"/><rect fill="#1E90FF" height="2" style="stroke:#181818;stroke-width:0.5;" width="4" x="854.1021" y="647.38"/><text fill="#000000" font-family="sans-serif" font-size="14" lengthAdjust="spacing" textLength="39.5664" x="810.9" y="669.3751">PAHO</text><text fill="#000000" font-family="sans-serif" font-size="14" lengthAdjust="spacing" textLength="40.2021" x="810.9" y="685.672">MQTT</text></g><!--entity rapidjson--><g id="elem_rapidjson"><rect fill="#1E90FF" height="62.5938" rx="2.5" ry="2.5" style="stroke:#181818;stroke-width:0.5;" width="79.9697" x="457.02" y="636.38"/><rect fill="#1E90FF" height="10" style="stroke:#181818;stroke-width:0.5;" width="15" x="516.9897" y="641.38"/><rect fill="#1E90FF" height="2" style="stroke:#181818;stroke-width:0.5;" width="4" x="514.9897" y="643.38"/><rect fill="#1E90FF" height="2" style="stroke:#181818;stroke-width:0.5;" width="4" x="514.9897" y="647.38"/><text fill="#000000" font-family="sans-serif" font-size="14" lengthAdjust="spacing" textLength="39.9697" x="472.02" y="669.3751">Rapid</text><text fill="#000000" font-family="sans-serif" font-size="14" lengthAdjust="spacing" textLength="34.5078" x="472.02" y="685.672">JSON</text></g><!--entity rapidyaml--><g id="elem_rapidyaml"><rect fill="#1E90FF" height="62.5938" rx="2.5" ry="2.5" style="stroke:#181818;stroke-width:0.5;" width="79.9697" x="342.02" y="636.38"/><rect fill="#1E90FF" height="10" style="stroke:#181818;stroke-width:0.5;" width="15" x="401.9897" y="641.38"/><rect fill="#1E90FF" height="2" style="stroke:#181818;stroke-width:0.5;" width="4" x="399.9897" y="643.38"/><rect fill="#1E90FF" height="2" style="stroke:#181818;stroke-width:0.5;" width="4" x="399.9897" y="647.38"/><text fill="#000000" font-family="sans-serif" font-size="14" lengthAdjust="spacing" textLength="39.9697" x="357.02" y="669.3751">Rapid</text><text fill="#000000" font-family="sans-serif" font-size="14" lengthAdjust="spacing" textLength="38.0078" x="357.02" y="685.672">YAML</text></g><!--entity imgui--><g id="elem_imgui"><rect fill="#1E90FF" height="46.2969" rx="2.5" ry="2.5" style="stroke:#181818;stroke-width:0.5;" width="79.8193" x="572.09" y="644.52"/><rect fill="#1E90FF" height="10" style="stroke:#181818;stroke-width:0.5;" width="15" x="631.9093" y="649.52"/><rect fill="#1E90FF" height="2" style="stroke:#181818;stroke-width:0.5;" width="4" x="629.9093" y="651.52"/><rect fill="#1E90FF" height="2" style="stroke:#181818;stroke-width:0.5;" width="4" x="629.9093" y="655.52"/><text fill="#000000" font-family="sans-serif" font-size="14" lengthAdjust="spacing" textLength="39.8193" x="587.09" y="677.5151">IMGui</text></g><!--entity core--><g id="elem_core"><rect fill="#F1F1F1" height="46.2969" rx="2.5" ry="2.5" style="stroke:#181818;stroke-width:0.5;" width="72.71" x="348.65" y="515.08"/><rect fill="#F1F1F1" height="10" style="stroke:#181818;stroke-width:0.5;" width="15" x="401.36" y="520.08"/><rect fill="#F1F1F1" height="2" style="stroke:#181818;stroke-width:0.5;" width="4" x="399.36" y="522.08"/><rect fill="#F1F1F1" height="2" style="stroke:#181818;stroke-width:0.5;" width="4" x="399.36" y="526.08"/><text fill="#000000" font-family="sans-serif" font-size="14" lengthAdjust="spacing" textLength="32.71" x="363.65" y="548.0751">Core</text></g><!--entity sslplus--><g id="elem_sslplus"><rect fill="#F1F1F1" height="46.2969" rx="2.5" ry="2.5" style="stroke:#181818;stroke-width:0.5;" width="94.5166" x="525.74" y="269.89"/><rect fill="#F1F1F1" height="10" style="stroke:#181818;stroke-width:0.5;" width="15" x="600.2566" y="274.89"/><rect fill="#F1F1F1" height="2" style="stroke:#181818;stroke-width:0.5;" width="4" x="598.2566" y="276.89"/><rect fill="#F1F1F1" height="2" style="stroke:#181818;stroke-width:0.5;" width="4" x="598.2566" y="280.89"/><text fill="#000000" font-family="sans-serif" font-size="14" lengthAdjust="spacing" textLength="54.5166" x="540.74" y="302.8851">SSLplus</text></g><!--entity shapes--><g id="elem_shapes"><rect fill="#F1F1F1" height="46.2969" rx="2.5" ry="2.5" style="stroke:#181818;stroke-width:0.5;" width="91.1328" x="96.43" y="392.49"/><rect fill="#F1F1F1" height="10" style="stroke:#181818;stroke-width:0.5;" width="15" x="167.5628" y="397.49"/><rect fill="#F1F1F1" height="2" style="stroke:#181818;stroke-width:0.5;" width="4" x="165.5628" y="399.49"/><rect fill="#F1F1F1" height="2" style="stroke:#181818;stroke-width:0.5;" width="4" x="165.5628" y="403.49"/><text fill="#000000" font-family="sans-serif" font-size="14" lengthAdjust="spacing" textLength="51.1328" x="111.43" y="425.4851">Shapes</text></g><!--entity msgbus--><g id="elem_msgbus"><rect fill="#F1F1F1" height="62.5938" rx="2.5" ry="2.5" style="stroke:#181818;stroke-width:0.5;" width="101.3594" x="522.32" y="147.3"/><rect fill="#F1F1F1" height="10" style="stroke:#181818;stroke-width:0.5;" width="15" x="603.6794" y="152.3"/><rect fill="#F1F1F1" height="2" style="stroke:#181818;stroke-width:0.5;" width="4" x="601.6794" y="154.3"/><rect fill="#F1F1F1" height="2" style="stroke:#181818;stroke-width:0.5;" width="4" x="601.6794" y="158.3"/><text fill="#000000" font-family="sans-serif" font-size="14" lengthAdjust="spacing" textLength="61.3594" x="537.32" y="180.2951">Message</text><text fill="#000000" font-family="sans-serif" font-size="14" lengthAdjust="spacing" textLength="25.7715" x="537.32" y="196.592">Bus</text></g><!--entity eglplus--><g id="elem_eglplus"><rect fill="#F1F1F1" height="46.2969" rx="2.5" ry="2.5" style="stroke:#181818;stroke-width:0.5;" width="96.4375" x="259.78" y="392.49"/><rect fill="#F1F1F1" height="10" style="stroke:#181818;stroke-width:0.5;" width="15" x="336.2175" y="397.49"/><rect fill="#F1F1F1" height="2" style="stroke:#181818;stroke-width:0.5;" width="4" x="334.2175" y="399.49"/><rect fill="#F1F1F1" height="2" style="stroke:#181818;stroke-width:0.5;" width="4" x="334.2175" y="403.49"/><text fill="#000000" font-family="sans-serif" font-size="14" lengthAdjust="spacing" textLength="56.4375" x="274.78" y="425.4851">EGLplus</text></g><!--entity oglplus--><g id="elem_oglplus"><rect fill="#F1F1F1" height="46.2969" rx="2.5" ry="2.5" style="stroke:#181818;stroke-width:0.5;" width="98.6113" x="228.69" y="269.89"/><rect fill="#F1F1F1" height="10" style="stroke:#181818;stroke-width:0.5;" width="15" x="307.3013" y="274.89"/><rect fill="#F1F1F1" height="2" style="stroke:#181818;stroke-width:0.5;" width="4" x="305.3013" y="276.89"/><rect fill="#F1F1F1" height="2" style="stroke:#181818;stroke-width:0.5;" width="4" x="305.3013" y="280.89"/><text fill="#000000" font-family="sans-serif" font-size="14" lengthAdjust="spacing" textLength="58.6113" x="243.69" y="302.8851">OGLplus</text></g><!--entity oalplus--><g id="elem_oalplus"><rect fill="#F1F1F1" height="46.2969" rx="2.5" ry="2.5" style="stroke:#181818;stroke-width:0.5;" width="97.3398" x="59.33" y="269.89"/><rect fill="#F1F1F1" height="10" style="stroke:#181818;stroke-width:0.5;" width="15" x="136.6698" y="274.89"/><rect fill="#F1F1F1" height="2" style="stroke:#181818;stroke-width:0.5;" width="4" x="134.6698" y="276.89"/><rect fill="#F1F1F1" height="2" style="stroke:#181818;stroke-width:0.5;" width="4" x="134.6698" y="280.89"/><text fill="#000000" font-family="sans-serif" font-size="14" lengthAdjust="spacing" textLength="57.3398" x="74.33" y="302.8851">OALplus</text></g><!--entity guiplus--><g id="elem_guiplus"><rect fill="#F1F1F1" height="46.2969" rx="2.5" ry="2.5" style="stroke:#181818;stroke-width:0.5;" width="94.168" x="392.92" y="155.45"/><rect fill="#F1F1F1" height="10" style="stroke:#181818;stroke-width:0.5;" width="15" x="467.088" y="160.45"/><rect fill="#F1F1F1" height="2" style="stroke:#181818;stroke-width:0.5;" width="4" x="465.088" y="162.45"/><rect fill="#F1F1F1" height="2" style="stroke:#181818;stroke-width:0.5;" width="4" x="465.088" y="166.45"/><text fill="#000000" font-family="sans-serif" font-size="14" lengthAdjust="spacing" textLength="54.168" x="407.92" y="188.4451">GUIplus</text></g><!--entity ecs--><g id="elem_ecs"><rect fill="#F1F1F1" height="78.8906" rx="2.5" ry="2.5" style="stroke:#181818;stroke-width:0.5;" width="121.2793" x="465.36" y="376.19"/><rect fill="#F1F1F1" height="10" style="stroke:#181818;stroke-width:0.5;" width="15" x="566.6393" y="381.19"/><rect fill="#F1F1F1" height="2" style="stroke:#181818;stroke-width:0.5;" width="4" x="564.6393" y="383.19"/><rect fill="#F1F1F1" height="2" style="stroke:#181818;stroke-width:0.5;" width="4" x="564.6393" y="387.19"/><text fill="#000000" font-family="sans-serif" font-size="14" lengthAdjust="spacing" textLength="40.8721" x="480.36" y="409.1851">Entity</text><text fill="#000000" font-family="sans-serif" font-size="14" lengthAdjust="spacing" textLength="81.2793" x="480.36" y="425.482">Component</text><text fill="#000000" font-family="sans-serif" font-size="14" lengthAdjust="spacing" textLength="52.2061" x="480.36" y="441.7789">System</text></g><!--entity app--><g id="elem_app"><rect fill="#F1F1F1" height="46.2969" rx="2.5" ry="2.5" style="stroke:#181818;stroke-width:0.5;" width="118.2236" x="218.89" y="41"/><rect fill="#F1F1F1" height="10" style="stroke:#181818;stroke-width:0.5;" width="15" x="317.1136" y="46"/><rect fill="#F1F1F1" height="2" style="stroke:#181818;stroke-width:0.5;" width="4" x="315.1136" y="48"/><rect fill="#F1F1F1" height="2" style="stroke:#181818;stroke-width:0.5;" width="4" x="315.1136" y="52"/><text fill="#000000" font-family="sans-serif" font-size="14" lengthAdjust="spacing" textLength="78.2236" x="233.89" y="73.9951">Application</text></g><!--link core to rapidjson--><g id="link_core_rapidjson"><path d="M408.72,561.85 C418.37,571.35 429.47,582.66 439,593.38 C451.08,606.96 460.0184,617.9446 470.3784,631.3346 " fill="none" id="core-to-rapidjson" style="stroke:#181818;stroke-width:1.0;"/><polygon fill="#181818" points="474.05,636.08,471.7062,626.5141,470.9903,632.1255,465.379,631.4096,474.05,636.08" style="stroke:#181818;stroke-width:1.0;"/></g><!--link core to rapidyaml--><g id="link_core_rapidyaml"><path d="M384.47,561.72 C383.98,582.44 383.3887,607.3616 382.8587,630.2816 " fill="none" id="core-to-rapidyaml" style="stroke:#181818;stroke-width:1.0;"/><polygon fill="#181818" points="382.72,636.28,386.927,627.3749,382.8356,631.2813,378.9291,627.1899,382.72,636.28" style="stroke:#181818;stroke-width:1.0;"/></g><!--link core to asio--><g id="link_core_asio"><path d="M421.71,542.91 C488.81,550.17 628.12,567.87 669,593.38 C688.57,605.59 700.6827,622.2481 710.0527,638.9381 " fill="none" id="core-to-asio" style="stroke:#181818;stroke-width:1.0;"/><polygon fill="#181818" points="712.99,644.17,712.072,634.364,710.5423,639.8101,705.0962,638.2803,712.99,644.17" style="stroke:#181818;stroke-width:1.0;"/></g><!--link msgbus to asio--><g id="link_msgbus_asio"><path d="M624.17,201.18 C652.62,216.06 685.68,238.8 703,269.89 C773.17,395.84 744.0085,574.7313 730.4785,638.3313 " fill="none" id="msgbus-to-asio" style="stroke:#181818;stroke-width:1.0;"/><polygon fill="#181818" points="729.23,644.2,735.0152,636.2293,730.2704,639.3094,727.1903,634.5647,729.23,644.2" style="stroke:#181818;stroke-width:1.0;"/></g><!--link msgbus to paho--><g id="link_msgbus_paho"><path d="M623.97,195.57 C660.69,209.58 708.75,233.49 738,269.89 C827.78,381.62 836.9025,558.07 836.7525,630.07 " fill="none" id="msgbus-to-paho" style="stroke:#181818;stroke-width:1.0;"/><polygon fill="#181818" points="836.74,636.07,840.7587,627.0784,836.7504,631.07,832.7588,627.0617,836.74,636.07" style="stroke:#181818;stroke-width:1.0;"/></g><!--link guiplus to imgui--><g id="link_guiplus_imgui"><path d="M487.54,201.84 C493.41,204.56 499.34,207.3 505,209.89 C563.94,236.92 602.82,215.42 638,269.89 C716.47,391.38 651.4134,574.2181 624.3534,638.6481 " fill="none" id="guiplus-to-imgui" style="stroke:#181818;stroke-width:1.0;"/><polygon fill="#181818" points="622.03,644.18,629.203,637.431,623.9661,639.5701,621.8271,634.3332,622.03,644.18" style="stroke:#181818;stroke-width:1.0;"/></g><!--link sslplus to core--><g id="link_sslplus_core"><path d="M586.98,316.5 C605.7,349.76 633.35,412.72 604,455.08 C562.72,514.66 478.5067,530.562 427.6867,535.052 " fill="none" id="sslplus-to-core" style="stroke:#181818;stroke-width:1.0;"/><polygon fill="#181818" points="421.71,535.58,431.0271,538.7724,426.6906,535.14,430.323,530.8034,421.71,535.58" style="stroke:#181818;stroke-width:1.0;"/></g><!--link shapes to core--><g id="link_shapes_core"><path d="M184.33,439.25 C194.35,444.51 205.03,450.05 215,455.08 C260.65,478.12 308.3678,501.0209 342.9178,517.3909 " fill="none" id="shapes-to-core" style="stroke:#181818;stroke-width:1.0;"/><polygon fill="#181818" points="348.34,519.96,341.9194,512.4916,343.8215,517.8191,338.494,519.7212,348.34,519.96" style="stroke:#181818;stroke-width:1.0;"/></g><!--link msgbus to sslplus--><g id="link_msgbus_sslplus"><path d="M573,210.32 C573,229.05 573,246.56 573,263.56 " fill="none" id="msgbus-to-sslplus" style="stroke:#181818;stroke-width:1.0;"/><polygon fill="#181818" points="573,269.56,577,260.56,573,264.56,569,260.56,573,269.56" style="stroke:#181818;stroke-width:1.0;"/></g><!--link msgbus to core--><g id="link_msgbus_core"><path d="M549.58,210.35 C536.81,227.54 521.01,249.55 508,269.89 C478.78,315.6 471.27,327.18 448,376.19 C425.14,424.32 405.6659,477.4647 394.6659,509.0047 " fill="none" id="msgbus-to-core" style="stroke:#181818;stroke-width:1.0;"/><polygon fill="#181818" points="392.69,514.67,399.4307,507.4892,394.3366,509.9489,391.8769,504.8548,392.69,514.67" style="stroke:#181818;stroke-width:1.0;"/></g><!--link eglplus to core--><g id="link_eglplus_core"><path d="M322.3,439.03 C336.13,460.69 353.7418,488.2725 367.5418,509.8925 " fill="none" id="eglplus-to-core" style="stroke:#181818;stroke-width:1.0;"/><polygon fill="#181818" points="370.77,514.95,369.2994,505.2116,368.0798,510.7354,362.556,509.5158,370.77,514.95" style="stroke:#181818;stroke-width:1.0;"/></g><!--link oglplus to core--><g id="link_oglplus_core"><path d="M263.38,316.66 C244.3,349.31 216.24,410.57 242,455.08 C264.73,494.36 308.4239,514.6351 342.7539,525.7951 " fill="none" id="oglplus-to-core" style="stroke:#181818;stroke-width:1.0;"/><polygon fill="#181818" points="348.46,527.65,341.1375,521.0636,343.7049,526.1042,338.6643,528.6717,348.46,527.65" style="stroke:#181818;stroke-width:1.0;"/></g><!--link oglplus to shapes--><g id="link_oglplus_shapes"><path d="M252.74,316.44 C228.31,338.1 195.9991,366.7491 171.6191,388.3691 " fill="none" id="oglplus-to-shapes" style="stroke:#181818;stroke-width:1.0;"/><polygon fill="#181818" points="167.13,392.35,176.5176,389.3714,170.8709,389.0326,171.2097,383.3859,167.13,392.35" style="stroke:#181818;stroke-width:1.0;"/></g><!--link oalplus to core--><g id="link_oalplus_core"><path d="M94.09,316.62 C75.31,350.32 47.62,414.17 79,455.08 C111.89,497.96 268.6293,522.6428 342.4693,532.1628 " fill="none" id="oalplus-to-core" style="stroke:#181818;stroke-width:1.0;"/><polygon fill="#181818" points="348.42,532.93,340.0054,527.812,343.461,532.2907,338.9824,535.7463,348.42,532.93" style="stroke:#181818;stroke-width:1.0;"/></g><!--link guiplus to core--><g id="link_guiplus_core"><path d="M436.52,202.24 C426.6,266.73 399.2025,444.8998 389.3425,508.9798 " fill="none" id="guiplus-to-core" style="stroke:#181818;stroke-width:1.0;"/><polygon fill="#181818" points="388.43,514.91,393.7522,506.623,389.1904,509.9682,385.8453,505.4064,388.43,514.91" style="stroke:#181818;stroke-width:1.0;"/></g><!--link ecs to core--><g id="link_ecs_core"><path d="M480.61,455.45 C457.75,475.01 435.3893,494.1297 415.9493,510.7597 " fill="none" id="ecs-to-core" style="stroke:#181818;stroke-width:1.0;"/><polygon fill="#181818" points="411.39,514.66,420.8292,511.8491,415.1895,511.4097,415.6288,505.77,411.39,514.66" style="stroke:#181818;stroke-width:1.0;"/></g><!--link app to core--><g id="link_app_core"><path d="M229.31,87.79 C169.62,118.87 72.6,181.18 42,269.89 C26.16,315.82 31.41,425.69 57,455.08 C95.22,498.96 264.9914,523.4366 342.3314,532.5666 " fill="none" id="app-to-core" style="stroke:#181818;stroke-width:1.0;"/><polygon fill="#181818" points="348.29,533.27,339.821,528.2425,343.3245,532.6838,338.8831,536.1873,348.29,533.27" style="stroke:#181818;stroke-width:1.0;"/></g><!--link app to eglplus--><g id="link_app_eglplus"><path d="M291,87.71 C314.58,131.35 360.57,230.53 345,316.19 C340.07,343.31 330.5901,367.2403 321.5901,386.7803 " fill="none" id="app-to-eglplus" style="stroke:#181818;stroke-width:1.0;"/><polygon fill="#181818" points="319.08,392.23,326.4783,385.7288,321.1718,387.6886,319.212,382.382,319.08,392.23" style="stroke:#181818;stroke-width:1.0;"/></g><!--link app to oglplus--><g id="link_app_oglplus"><path d="M278,87.73 C278,131.22 278,220.13 278,263.55 " fill="none" id="app-to-oglplus" style="stroke:#181818;stroke-width:1.0;"/><polygon fill="#181818" points="278,269.55,282,260.55,278,264.55,274,260.55,278,269.55" style="stroke:#181818;stroke-width:1.0;"/></g><!--link app to oalplus--><g id="link_app_oalplus"><path d="M247,87.46 C227.27,102.74 202.12,124.33 184,147.3 C153.23,186.29 131.2986,234.0595 119.0486,263.8995 " fill="none" id="app-to-oalplus" style="stroke:#181818;stroke-width:1.0;"/><polygon fill="#181818" points="116.77,269.45,123.8882,262.6433,118.6688,264.8246,116.4876,259.6052,116.77,269.45" style="stroke:#181818;stroke-width:1.0;"/></g><!--link app to guiplus--><g id="link_app_guiplus"><path d="M310.39,87.63 C338.56,107.18 374.2314,131.9381 402.4614,151.5381 " fill="none" id="app-to-guiplus" style="stroke:#181818;stroke-width:1.0;"/><polygon fill="#181818" points="407.39,154.96,402.2784,146.5415,403.2829,152.1084,397.7159,153.1129,407.39,154.96" style="stroke:#181818;stroke-width:1.0;"/></g><!--link app to shapes--><g id="link_app_shapes"><path d="M269.29,87.54 C244.72,150.67 177.2961,323.9385 152.8161,386.8385 " fill="none" id="app-to-shapes" style="stroke:#181818;stroke-width:1.0;"/><polygon fill="#181818" points="150.64,392.43,157.6318,385.4936,152.4534,387.7704,150.1766,382.5921,150.64,392.43" style="stroke:#181818;stroke-width:1.0;"/></g><!--link app to msgbus--><g id="link_app_msgbus"><path d="M337.23,85.27 C383.3,101.24 448.64,124.58 505,147.3 C510.51,149.52 510.7291,149.5471 516.4191,151.9971 " fill="none" id="app-to-msgbus" style="stroke:#181818;stroke-width:1.0;"/><polygon fill="#181818" points="521.93,154.37,515.2456,147.1368,517.3376,152.3926,512.0818,154.4846,521.93,154.37" style="stroke:#181818;stroke-width:1.0;"/></g><!--link guiplus to oglplus--><!--link oglplus to eglplus--><!--link sslplus to ecs--><!--SRC=[XL9BRiCW55oNKrZgEbUevAIHcogkspfTL74M12ERrdnax4LKzUur60BOIIgnODuCZySC0g9lME4exuyBoik-mJBw0NU8Ky4PPbsqZ_DDTeYW71RXqVqZBolSBfiU1whN-2ahMFgssscjWFLrxJiKf2pOSvwzQ76hy9VaxByJdt6wTITEa3PNJspIf2TQIsZLaq3t2u0mprx72M5uyk8LRx4-YePDmEJvLZIzrAIKZTg7V0q5DhJU1coAfHmkBTZIjA2oEauwh1Dt0wxcDsGUpo_niSV3EPzyRCxyuCkCNxEETAU2hMofOFb9TfYE4w5G7GlH40GxmjduHOHGxYhVeiNYmIKxAQdeN4bzB31wSH6hpmJCiBgW8mN09A1BEghHSuUz7ZOjhwGbncDNuBSA9bHZhDFumurjaGS6L-R0Xcinds8OOXkMnMOK2yrNSfFiQrAMc1syrkUNU9mTu-obpo7v1m00]--></g></svg>