<?xml version="1.0" encoding="UTF-8" standalone="no"?><svg xmlns="http://www.w3.org/2000/svg" xmlns:xlink="http://www.w3.org/1999/xlink" contentScriptType="application/ecmascript" contentStyleType="text/css" height="435px" preserveAspectRatio="none" style="width:816px;height:435px;" version="1.1" viewBox="0 0 816 435" width="816px" zoomAndPan="magnify"><defs><filter height="300%" id="f11cbtkfelam3o" width="300%" x="-1" y="-1"><feGaussianBlur result="blurOut" stdDeviation="2.0"/><feColorMatrix in="blurOut" result="blurOut2" type="matrix" values="0 0 0 0 0 0 0 0 0 0 0 0 0 0 0 0 0 0 .4 0"/><feOffset dx="4.0" dy="4.0" in="blurOut2" result="blurOut3"/><feBlend in="SourceGraphic" in2="blurOut3" mode="normal"/></filter></defs><g><!--MD5=[0d482ad21d5c7c11aa976e45da5ecfe6]
entity core--><rect fill="#FEFECE" filter="url(#f11cbtkfelam3o)" height="46.2969" style="stroke:#A80036;stroke-width:1.5;" width="73" x="389" y="375"/><rect fill="#FEFECE" height="10" style="stroke:#A80036;stroke-width:1.5;" width="15" x="442" y="380"/><rect fill="#FEFECE" height="2" style="stroke:#A80036;stroke-width:1.5;" width="4" x="440" y="382"/><rect fill="#FEFECE" height="2" style="stroke:#A80036;stroke-width:1.5;" width="4" x="440" y="386"/><text fill="#000000" font-family="sans-serif" font-size="14" lengthAdjust="spacing" textLength="33" x="404" y="407.9951">Core</text><!--MD5=[2ac6718fdcc08e369529095954fd530a]
entity sslplus--><rect fill="#FEFECE" filter="url(#f11cbtkfelam3o)" height="46.2969" style="stroke:#A80036;stroke-width:1.5;" width="94" x="80.5" y="252.5"/><rect fill="#FEFECE" height="10" style="stroke:#A80036;stroke-width:1.5;" width="15" x="154.5" y="257.5"/><rect fill="#FEFECE" height="2" style="stroke:#A80036;stroke-width:1.5;" width="4" x="152.5" y="259.5"/><rect fill="#FEFECE" height="2" style="stroke:#A80036;stroke-width:1.5;" width="4" x="152.5" y="263.5"/><text fill="#000000" font-family="sans-serif" font-size="14" lengthAdjust="spacing" textLength="54" x="95.5" y="285.4951">SSLplus</text><!--MD5=[cdc5d2131b72f1aaf3f0e272e254324b]
entity shapes--><rect fill="#FEFECE" filter="url(#f11cbtkfelam3o)" height="46.2969" style="stroke:#A80036;stroke-width:1.5;" width="92" x="280.5" y="252.5"/><rect fill="#FEFECE" height="10" style="stroke:#A80036;stroke-width:1.5;" width="15" x="352.5" y="257.5"/><rect fill="#FEFECE" height="2" style="stroke:#A80036;stroke-width:1.5;" width="4" x="350.5" y="259.5"/><rect fill="#FEFECE" height="2" style="stroke:#A80036;stroke-width:1.5;" width="4" x="350.5" y="263.5"/><text fill="#000000" font-family="sans-serif" font-size="14" lengthAdjust="spacing" textLength="52" x="295.5" y="285.4951">Shapes</text><!--MD5=[4c971703817ce75988139e5bccad6c2f]
entity msgbus--><rect fill="#FEFECE" filter="url(#f11cbtkfelam3o)" height="62.5938" style="stroke:#A80036;stroke-width:1.5;" width="103" x="7" y="113"/><rect fill="#FEFECE" height="10" style="stroke:#A80036;stroke-width:1.5;" width="15" x="90" y="118"/><rect fill="#FEFECE" height="2" style="stroke:#A80036;stroke-width:1.5;" width="4" x="88" y="120"/><rect fill="#FEFECE" height="2" style="stroke:#A80036;stroke-width:1.5;" width="4" x="88" y="124"/><text fill="#000000" font-family="sans-serif" font-size="14" lengthAdjust="spacing" textLength="63" x="22" y="145.9951">Message</text><text fill="#000000" font-family="sans-serif" font-size="14" lengthAdjust="spacing" textLength="27" x="22" y="162.292">Bus</text><!--MD5=[f21c4a83c42dbfe58de9635d1ee07c7c]
entity eglplus--><rect fill="#FEFECE" filter="url(#f11cbtkfelam3o)" height="46.2969" style="stroke:#A80036;stroke-width:1.5;" width="96" x="175.5" y="121.5"/><rect fill="#FEFECE" height="10" style="stroke:#A80036;stroke-width:1.5;" width="15" x="251.5" y="126.5"/><rect fill="#FEFECE" height="2" style="stroke:#A80036;stroke-width:1.5;" width="4" x="249.5" y="128.5"/><rect fill="#FEFECE" height="2" style="stroke:#A80036;stroke-width:1.5;" width="4" x="249.5" y="132.5"/><text fill="#000000" font-family="sans-serif" font-size="14" lengthAdjust="spacing" textLength="56" x="190.5" y="154.4951">EGLplus</text><!--MD5=[e598028ba2bdabf3904d76427277fd15]
entity oglplus--><rect fill="#FEFECE" filter="url(#f11cbtkfelam3o)" height="46.2969" style="stroke:#A80036;stroke-width:1.5;" width="98" x="377.5" y="121.5"/><rect fill="#FEFECE" height="10" style="stroke:#A80036;stroke-width:1.5;" width="15" x="455.5" y="126.5"/><rect fill="#FEFECE" height="2" style="stroke:#A80036;stroke-width:1.5;" width="4" x="453.5" y="128.5"/><rect fill="#FEFECE" height="2" style="stroke:#A80036;stroke-width:1.5;" width="4" x="453.5" y="132.5"/><text fill="#000000" font-family="sans-serif" font-size="14" lengthAdjust="spacing" textLength="58" x="392.5" y="154.4951">OGLplus</text><!--MD5=[0056fbd0491e57ed7fbb94ea9c987324]
entity oalplus--><rect fill="#FEFECE" filter="url(#f11cbtkfelam3o)" height="46.2969" style="stroke:#A80036;stroke-width:1.5;" width="96" x="478.5" y="252.5"/><rect fill="#FEFECE" height="10" style="stroke:#A80036;stroke-width:1.5;" width="15" x="554.5" y="257.5"/><rect fill="#FEFECE" height="2" style="stroke:#A80036;stroke-width:1.5;" width="4" x="552.5" y="259.5"/><rect fill="#FEFECE" height="2" style="stroke:#A80036;stroke-width:1.5;" width="4" x="552.5" y="263.5"/><text fill="#000000" font-family="sans-serif" font-size="14" lengthAdjust="spacing" textLength="56" x="493.5" y="285.4951">OALplus</text><!--MD5=[f58456ccec15107b0d3279611d67a5c5]
entity ecs--><rect fill="#FEFECE" filter="url(#f11cbtkfelam3o)" height="78.8906" style="stroke:#A80036;stroke-width:1.5;" width="122" x="680.5" y="236"/><rect fill="#FEFECE" height="10" style="stroke:#A80036;stroke-width:1.5;" width="15" x="782.5" y="241"/><rect fill="#FEFECE" height="2" style="stroke:#A80036;stroke-width:1.5;" width="4" x="780.5" y="243"/><rect fill="#FEFECE" height="2" style="stroke:#A80036;stroke-width:1.5;" width="4" x="780.5" y="247"/><text fill="#000000" font-family="sans-serif" font-size="14" lengthAdjust="spacing" textLength="38" x="695.5" y="268.9951">Entity</text><text fill="#000000" font-family="sans-serif" font-size="14" lengthAdjust="spacing" textLength="82" x="695.5" y="285.292">Component</text><text fill="#000000" font-family="sans-serif" font-size="14" lengthAdjust="spacing" textLength="51" x="695.5" y="301.5889">System</text><!--MD5=[4541fb81c80c07473fe4b07432ef0971]
entity app--><rect fill="#FEFECE" filter="url(#f11cbtkfelam3o)" height="46.2969" style="stroke:#A80036;stroke-width:1.5;" width="115" x="369" y="7"/><rect fill="#FEFECE" height="10" style="stroke:#A80036;stroke-width:1.5;" width="15" x="464" y="12"/><rect fill="#FEFECE" height="2" style="stroke:#A80036;stroke-width:1.5;" width="4" x="462" y="14"/><rect fill="#FEFECE" height="2" style="stroke:#A80036;stroke-width:1.5;" width="4" x="462" y="18"/><text fill="#000000" font-family="sans-serif" font-size="14" lengthAdjust="spacing" textLength="75" x="384" y="39.9951">Application</text><!--MD5=[4870c9f75fef21599445ff782e3820a2]
link sslplus to core--><path d="M167.75,298.64 C178.58,304.26 190.37,310.09 201.5,315 C263.83,342.49 338.55,368.51 384,383.6 " fill="none" id="sslplus-to-core" style="stroke:#A80036;stroke-width:1.0;"/><polygon fill="#A80036" points="388.85,385.2,381.5648,378.5724,384.1037,383.6274,379.0487,386.1664,388.85,385.2" style="stroke:#A80036;stroke-width:1.0;"/><!--MD5=[221af3e5be4e8aaa06c68f59a403c35c]
link shapes to core--><path d="M344.66,298.6 C361.37,318.94 386.18,349.14 403.9,370.71 " fill="none" id="shapes-to-core" style="stroke:#A80036;stroke-width:1.0;"/><polygon fill="#A80036" points="407.12,374.63,404.4938,365.1377,403.9445,370.7679,398.3143,370.2186,407.12,374.63" style="stroke:#A80036;stroke-width:1.0;"/><!--MD5=[41a95efdae3d2f898cb50b548db62b97]
link msgbus to sslplus--><path d="M74.85,176.07 C86.49,197.82 101.97,226.77 113.13,247.63 " fill="none" id="msgbus-to-sslplus" style="stroke:#A80036;stroke-width:1.0;"/><polygon fill="#A80036" points="115.58,252.22,114.8692,242.3968,113.2248,247.8094,107.8122,246.1651,115.58,252.22" style="stroke:#A80036;stroke-width:1.0;"/><!--MD5=[db1c66775a76328d059c1907c9245561]
link msgbus to core--><path d="M48.98,176.27 C39.54,213.51 30.61,276.06 62.5,315 C102.93,364.38 297.15,386.38 383.71,393.85 " fill="none" id="msgbus-to-core" style="stroke:#A80036;stroke-width:1.0;"/><polygon fill="#A80036" points="388.76,394.28,380.1221,389.5485,383.7772,393.866,379.4597,397.521,388.76,394.28" style="stroke:#A80036;stroke-width:1.0;"/><!--MD5=[bab9bb75922a153f46cb8db8a2df3d9a]
link eglplus to core--><path d="M222.88,167.52 C223.03,202.48 228.1,271.17 262.5,315 C292.92,353.75 346.53,375.68 383.93,386.93 " fill="none" id="eglplus-to-core" style="stroke:#A80036;stroke-width:1.0;"/><polygon fill="#A80036" points="388.87,388.38,381.3675,381.9994,384.0739,386.9669,379.1064,389.6732,388.87,388.38" style="stroke:#A80036;stroke-width:1.0;"/><!--MD5=[def59b5e0b241f19f9b568d127e5d207]
link oglplus to core--><path d="M426.41,167.82 C426.23,213.87 425.81,319.29 425.61,369.47 " fill="none" id="oglplus-to-core" style="stroke:#A80036;stroke-width:1.0;"/><polygon fill="#A80036" points="425.59,374.73,429.6414,365.753,425.6186,369.7301,421.6415,365.7073,425.59,374.73" style="stroke:#A80036;stroke-width:1.0;"/><!--MD5=[9af95b53a5b37e5a9811acf7a635a697]
link oglplus to shapes--><path d="M409.31,167.68 C391.99,190.01 365.28,224.47 346.9,248.18 " fill="none" id="oglplus-to-shapes" style="stroke:#A80036;stroke-width:1.0;"/><polygon fill="#A80036" points="343.8,252.18,352.4677,247.5033,346.8568,248.2233,346.1369,242.6124,343.8,252.18" style="stroke:#A80036;stroke-width:1.0;"/><!--MD5=[b18fa7a7262397a62e3e1a448c0c9cf3]
link oalplus to core--><path d="M497.84,298.6 C477.61,318.86 452.22,348.89 436.98,370.44 " fill="none" id="oalplus-to-core" style="stroke:#A80036;stroke-width:1.0;"/><polygon fill="#A80036" points="434.07,374.63,442.4974,369.533,436.9287,370.5278,435.9339,364.9591,434.07,374.63" style="stroke:#A80036;stroke-width:1.0;"/><!--MD5=[b18fa7a7262397a62e3e1a448c0c9cf3]
link oalplus to core--><path d="M518.7,298.6 C505.06,319.03 479.82,349.39 458.65,370.98 " fill="none" id="oalplus-to-core-1" style="stroke:#A80036;stroke-width:1.0;"/><polygon fill="#A80036" points="455.02,374.63,464.1981,371.0574,458.5412,371.0802,458.5184,365.4234,455.02,374.63" style="stroke:#A80036;stroke-width:1.0;"/><!--MD5=[f8788864f7992086e4cddd57fe502401]
link ecs to core--><path d="M680.18,303.96 C671.27,307.76 662.18,311.55 653.5,315 C589.02,340.67 512.95,367.31 467.01,383.01 " fill="none" id="ecs-to-core" style="stroke:#A80036;stroke-width:1.0;"/><polygon fill="#A80036" points="462.11,384.68,471.9197,385.5578,466.8419,383.0646,469.335,377.9868,462.11,384.68" style="stroke:#A80036;stroke-width:1.0;"/><!--MD5=[3ca5629ec7114117f93847c258b7b725]
link app to core--><path d="M461.7,53.26 C483.27,68.2 510.32,89.41 529.5,113 C588.74,185.87 641.06,235.23 591.5,315 C564.55,358.37 507.12,379.49 467.42,389.28 " fill="none" id="app-to-core" style="stroke:#A80036;stroke-width:1.0;"/><polygon fill="#A80036" points="462.18,390.53,471.8608,392.3418,467.0446,389.3745,470.0119,384.5583,462.18,390.53" style="stroke:#A80036;stroke-width:1.0;"/><!--MD5=[7756efb99bd02fdfc0fe78f87f35d18f]
link app to eglplus--><path d="M386.39,53.23 C352.33,72.1 303.5,99.16 268.19,118.73 " fill="none" id="app-to-eglplus" style="stroke:#A80036;stroke-width:1.0;"/><polygon fill="#A80036" points="263.52,121.32,273.3321,120.4704,267.8968,118.9027,269.4645,113.4674,263.52,121.32" style="stroke:#A80036;stroke-width:1.0;"/><!--MD5=[da52b3a056b35e4285aa15ec90cc952b]
link app to oglplus--><path d="M426.5,53.23 C426.5,71.25 426.5,96.75 426.5,116.05 " fill="none" id="app-to-oglplus" style="stroke:#A80036;stroke-width:1.0;"/><polygon fill="#A80036" points="426.5,121.32,430.5,112.32,426.5,116.32,422.5,112.32,426.5,121.32" style="stroke:#A80036;stroke-width:1.0;"/><!--MD5=[cb16e8e0954218cf86a1793a98761615]
link app to oalplus--><path d="M449.07,53.02 C463.63,68.48 481.78,90.38 492.5,113 C513.41,157.12 521.55,214.05 524.65,247.19 " fill="none" id="app-to-oalplus" style="stroke:#A80036;stroke-width:1.0;"/><polygon fill="#A80036" points="525.11,252.3,528.298,242.9814,524.6676,247.3196,520.3294,243.6892,525.11,252.3" style="stroke:#A80036;stroke-width:1.0;"/><!--MD5=[95f4d793c3f86e3dc2c56c442473564f]
link app to shapes--><path d="M403.21,53.27 C388.46,68.68 370.22,90.41 359.5,113 C338.59,157.05 330.89,214 328.09,247.17 " fill="none" id="app-to-shapes" style="stroke:#A80036;stroke-width:1.0;"/><polygon fill="#A80036" points="327.68,252.29,332.3869,243.6387,328.0799,247.306,324.4126,242.9989,327.68,252.29" style="stroke:#A80036;stroke-width:1.0;"/><!--MD5=[0eb9691bc0352c472a57b72cd63dba1e]
@startuml

component [Core] as core
component [SSLplus] as sslplus
component [Shapes] as shapes
component [Message\nBus] as msgbus
component [EGLplus] as eglplus
component [OGLplus] as oglplus
component [OALplus] as oalplus
component [Entity\nComponent\nSystem] as ecs
component [Application] as app

sslplus - -> core
shapes - -> core
msgbus - -> sslplus
msgbus - -> core
eglplus - -> core
oglplus - -> core
oglplus - -> shapes
oalplus - -> core
oalplus - -> core
ecs - -> core
app - -> core
app - -> eglplus
app - -> oglplus
app - -> oalplus
app - -> shapes

@enduml

PlantUML version 1.2021.3(Mon Mar 22 17:53:19 CET 2021)
(GPL source distribution)
Java Runtime: OpenJDK Runtime Environment
JVM: OpenJDK 64-Bit Server VM
Default Encoding: UTF-8
Language: en
Country: US
--></g></svg>
